<?xml version="1.0" encoding="UTF-8"?>
<svg version="1.1" xmlns="http://www.w3.org/2000/svg" width="512" height="512">
<path d="M0 0 C1.01790619 0.00215515 2.03581238 0.0043103 3.08456421 0.00653076 C17.69363523 0.05620146 32.02575853 0.30709809 46.375 3.3125 C47.34985352 3.51117676 48.32470703 3.70985352 49.32910156 3.91455078 C97.7109774 14.03517194 141.69928269 35.9516877 177.375 70.3125 C178.3640332 71.26068604 178.3640332 71.26068604 179.37304688 72.22802734 C188.86130305 81.37247479 197.6012044 90.66984009 205.375 101.3125 C206.23306152 102.46355017 207.09113451 103.61459177 207.94921875 104.765625 C213.98736829 112.95680614 219.34595521 121.47054105 224.375 130.3125 C224.73948242 130.94430176 225.10396484 131.57610352 225.47949219 132.22705078 C247.08534998 169.97532572 256.85198095 212.74189997 256.6875 255.9375 C256.68534485 256.95540619 256.6831897 257.97331238 256.68096924 259.02206421 C256.63129854 273.63113523 256.38040191 287.96325853 253.375 302.3125 C253.07698486 303.77478027 253.07698486 303.77478027 252.77294922 305.26660156 C242.65232806 353.6484774 220.7358123 397.63678269 186.375 433.3125 C185.74287598 433.97185547 185.11075195 434.63121094 184.45947266 435.31054688 C175.31502521 444.79880305 166.01765991 453.5387044 155.375 461.3125 C154.22394983 462.17056152 153.07290823 463.02863451 151.921875 463.88671875 C143.73224019 469.92427396 135.22961724 475.30707302 126.375 480.3125 C125.66778809 480.7146875 124.96057617 481.116875 124.23193359 481.53125 C101.09654164 494.5566741 75.92537591 503.30551461 49.9375 508.625 C49.21860596 508.77235596 48.49971191 508.91971191 47.7590332 509.0715332 C33.08339502 511.86090125 18.55831162 512.66142619 3.64770508 512.62817383 C0.70811513 512.6250221 -2.2304558 512.64854926 -5.16992188 512.67382812 C-18.54306192 512.71848737 -31.43916711 511.51301542 -44.625 509.3125 C-46.33055054 509.03031616 -46.33055054 509.03031616 -48.07055664 508.74243164 C-91.33802759 500.97044532 -132.38793216 480.98345309 -165.625 452.3125 C-166.37007813 451.67828125 -167.11515625 451.0440625 -167.8828125 450.390625 C-181.38779833 438.57948485 -194.05918743 425.82889772 -204.625 411.3125 C-205.48149066 410.16255169 -206.33826433 409.01281411 -207.1953125 407.86328125 C-213.23534209 399.67315742 -218.61867614 391.16870382 -223.625 382.3125 C-224.0271875 381.60528809 -224.429375 380.89807617 -224.84375 380.16943359 C-237.8691741 357.03404164 -246.61801461 331.86287591 -251.9375 305.875 C-252.08485596 305.15610596 -252.23221191 304.43721191 -252.3840332 303.6965332 C-255.35789088 288.05024391 -255.99800362 272.57681954 -255.9375 256.6875 C-255.93534485 255.66959381 -255.9331897 254.65168762 -255.93096924 253.60293579 C-255.88129854 238.99386477 -255.63040191 224.66174147 -252.625 210.3125 C-252.42632324 209.33764648 -252.22764648 208.36279297 -252.02294922 207.35839844 C-241.90232806 158.9765226 -219.9858123 114.98821731 -185.625 79.3125 C-184.99287598 78.65314453 -184.36075195 77.99378906 -183.70947266 77.31445312 C-174.56502521 67.82619695 -165.26765991 59.0862956 -154.625 51.3125 C-153.47394983 50.45443848 -152.32290823 49.59636549 -151.171875 48.73828125 C-142.98224019 42.70072604 -134.47961724 37.31792698 -125.625 32.3125 C-124.91778809 31.9103125 -124.21057617 31.508125 -123.48193359 31.09375 C-100.34654164 18.0683259 -75.17537591 9.31948539 -49.1875 4 C-48.46860596 3.85264404 -47.74971191 3.70528809 -47.0090332 3.5534668 C-31.36274391 0.57960912 -15.88931954 -0.06050362 0 0 Z M13.375 28.3125 C13.375 35.2425 13.375 42.1725 13.375 49.3125 C16.87287109 49.84037109 16.87287109 49.84037109 20.44140625 50.37890625 C62.69301369 56.89232997 104.47517381 70.32372331 136.375 100.3125 C136.375 100.9725 136.375 101.6325 136.375 102.3125 C134.87109375 103.3203125 134.87109375 103.3203125 132.8125 104.4375 C126.84118566 108.01180361 122.28347859 112.97314619 119.375 119.3125 C115.61698893 117.67231291 112.61293697 115.2276588 109.4375 112.6875 C103.04801315 107.68899558 96.40580356 103.37126599 89.375 99.3125 C88.29476562 98.66667969 87.21453125 98.02085938 86.1015625 97.35546875 C63.97611055 84.52999202 38.64841173 78.41861764 13.375 76.3125 C13.375 89.1825 13.375 102.0525 13.375 115.3125 C19.645 116.3025 25.915 117.2925 32.375 118.3125 C61.47562797 125.746967 89.1384382 140.77042436 108.375 164.3125 C109.13683594 165.22515625 109.89867187 166.1378125 110.68359375 167.078125 C128.78710258 189.55923736 137.33598942 215.03942595 141.375 243.3125 C154.245 243.3125 167.115 243.3125 180.375 243.3125 C178.92060163 228.91427683 178.92060163 228.91427683 176.1875 214.875 C175.97391846 214.00721924 175.76033691 213.13943848 175.5402832 212.24536133 C171.65710206 197.0746632 165.64181121 183.13523872 158.375 169.3125 C157.37047768 167.31476756 156.36886035 165.31555806 155.375 163.3125 C156.1484375 162.9721875 156.921875 162.631875 157.71875 162.28125 C164.75388432 159.00747462 170.59576382 155.55362019 175.375 149.3125 C175.375 148.6525 175.375 147.9925 175.375 147.3125 C176.035 147.3125 176.695 147.3125 177.375 147.3125 C177.63023437 147.99054688 177.88546875 148.66859375 178.1484375 149.3671875 C179.30485671 152.14406674 180.61000298 154.80127529 181.98876953 157.47338867 C196.08337661 184.84932154 203.36204636 212.88093491 207.375 243.3125 C214.305 243.3125 221.235 243.3125 228.375 243.3125 C226.59477536 200.14205246 211.32130284 156.90133486 185.375 122.3125 C184.92801758 121.71147461 184.48103516 121.11044922 184.02050781 120.49121094 C177.35057621 111.5835629 170.07422756 103.33900609 162.375 95.3125 C161.59253906 94.48878906 160.81007813 93.66507812 160.00390625 92.81640625 C122.35449163 54.09321154 67.06119345 30.52636365 13.375 28.3125 Z M-165.3125 98.8125 C-196.63307584 130.63915337 -217.14170589 173.4862163 -224.9375 217.1875 C-225.09702148 218.07743652 -225.25654297 218.96737305 -225.42089844 219.88427734 C-226.72336119 227.74649455 -227.08756954 235.25104311 -227.625 243.3125 C-198.915 243.3125 -170.205 243.3125 -140.625 243.3125 C-139.635 237.0425 -138.645 230.7725 -137.625 224.3125 C-133.17858855 206.90797517 -126.56690364 191.58110218 -116.7265625 176.5703125 C-115.18033425 174.17337131 -113.80694922 171.89720215 -112.625 169.3125 C-111.965 169.3125 -111.305 169.3125 -110.625 169.3125 C-110.439375 169.9725 -110.25375 170.6325 -110.0625 171.3125 C-106.97812798 177.7494503 -101.86913931 182.90660583 -95.625 186.3125 C-94.635 186.3125 -93.645 186.3125 -92.625 186.3125 C-94.72684277 190.67786576 -96.91974314 194.83624962 -99.5 198.9375 C-105.08848513 208.21410378 -108.71519462 217.90031625 -111.5 228.3125 C-111.715354 229.11357178 -111.93070801 229.91464355 -112.15258789 230.73999023 C-113.29924259 235.25681265 -113.625 238.47058708 -113.625 243.3125 C-86.565 243.3125 -59.505 243.3125 -31.625 243.3125 C-32.285 244.9625 -32.945 246.6125 -33.625 248.3125 C-35.22198419 255.25422968 -34.84904251 262.86441498 -31.625 269.3125 C-80.465 269.3125 -129.305 269.3125 -179.625 269.3125 C-178.14749828 283.81200881 -178.14749828 283.81200881 -175.375 297.9375 C-175.16464111 298.80141357 -174.95428223 299.66532715 -174.73754883 300.55541992 C-172.67026574 308.72303056 -169.82847373 316.52948993 -166.625 324.3125 C-168.16994141 324.22935547 -168.16994141 324.22935547 -169.74609375 324.14453125 C-178.06687624 324.50484711 -185.68185407 329.69952884 -191.625 335.3125 C-203.15191281 297.07339739 -203.15191281 297.07339739 -204.97949219 278.26293945 C-205.28629716 275.11818852 -205.62185107 272.32194678 -206.625 269.3125 C-213.555 269.3125 -220.485 269.3125 -227.625 269.3125 C-225.84477536 312.48294754 -210.57130284 355.72366514 -184.625 390.3125 C-183.95452637 391.21403809 -183.95452637 391.21403809 -183.27050781 392.13378906 C-176.60057621 401.0414371 -169.32422756 409.28599391 -161.625 417.3125 C-160.84253906 418.13621094 -160.06007813 418.95992188 -159.25390625 419.80859375 C-146.08876942 433.34920685 -130.04259595 445.01378038 -113.625 454.3125 C-112.52406006 454.93874268 -112.52406006 454.93874268 -111.40087891 455.57763672 C-80.9961731 472.66605364 -47.45767917 482.60501573 -12.625 484.3125 C-12.625 477.3825 -12.625 470.4525 -12.625 463.3125 C-14.25824219 463.08175781 -15.89148438 462.85101563 -17.57421875 462.61328125 C-45.85914835 458.51389206 -72.37443164 452.08430381 -97.625 438.3125 C-98.2221582 437.99313477 -98.81931641 437.67376953 -99.43457031 437.34472656 C-122.09489947 425.18100764 -144.24311668 408.06438992 -159.625 387.3125 C-158.81675781 386.92578125 -158.00851563 386.5390625 -157.17578125 386.140625 C-156.10714844 385.61984375 -155.03851563 385.0990625 -153.9375 384.5625 C-152.88175781 384.05203125 -151.82601562 383.5415625 -150.73828125 383.015625 C-146.18216475 380.5231949 -142.42600471 377.73513902 -139.625 373.3125 C-139.625 372.6525 -139.625 371.9925 -139.625 371.3125 C-136.79216641 374.12370891 -133.99577684 376.96228722 -131.234375 379.84375 C-99.03887842 413.14321211 -58.68713303 432.12503336 -12.625 436.3125 C-12.625 387.4725 -12.625 338.6325 -12.625 288.3125 C-10.975 288.9725 -9.325 289.6325 -7.625 290.3125 C-0.68327032 291.90948419 6.92691498 291.53654251 13.375 288.3125 C13.375 315.3725 13.375 342.4325 13.375 370.3125 C23.19048523 369.44859223 23.19048523 369.44859223 32.5625 367.25 C33.27809082 367.03520996 33.99368164 366.82041992 34.73095703 366.59912109 C64.4421451 357.19503152 89.23027522 335.58299269 103.65478516 308.16113281 C109.52067754 296.36808546 114.375 282.55588736 114.375 269.3125 C87.315 269.3125 60.255 269.3125 32.375 269.3125 C33.035 267.6625 33.695 266.0125 34.375 264.3125 C35.97198419 257.37077032 35.59904251 249.76058502 32.375 243.3125 C59.435 243.3125 86.495 243.3125 114.375 243.3125 C113.51109223 233.49701477 113.51109223 233.49701477 111.3125 224.125 C110.99031494 223.05161377 110.99031494 223.05161377 110.66162109 221.95654297 C101.25498186 192.23729953 79.64389389 167.47248207 52.22583008 153.03271484 C40.4323584 147.16127372 26.60311643 142.3125 13.375 142.3125 C13.375 169.3725 13.375 196.4325 13.375 224.3125 C11.725 223.6525 10.075 222.9925 8.375 222.3125 C1.43327032 220.71551581 -6.17691498 221.08845749 -12.625 224.3125 C-12.625 197.2525 -12.625 170.1925 -12.625 142.3125 C-19.77970204 142.96292746 -25.59799119 143.53697126 -32.25 145.625 C-32.97566162 145.84502686 -33.70132324 146.06505371 -34.44897461 146.29174805 C-39.70604116 147.92438838 -44.67814082 149.88404185 -49.625 152.3125 C-49.80933594 151.70664063 -49.99367187 151.10078125 -50.18359375 150.4765625 C-52.4789066 143.8456587 -55.7411505 139.4713675 -60.6015625 134.44140625 C-62.625 132.3125 -62.625 132.3125 -64.625 129.3125 C-63.408125 128.920625 -62.19125 128.52875 -60.9375 128.125 C-58.21135489 127.228906 -55.55455796 126.28304794 -52.90625 125.17578125 C-40.07437481 119.82353857 -26.38123658 117.03202957 -12.625 115.3125 C-12.625 102.4425 -12.625 89.5725 -12.625 76.3125 C-27.02322317 77.76689837 -27.02322317 77.76689837 -41.0625 80.5 C-41.93028076 80.71358154 -42.79806152 80.92716309 -43.69213867 81.1472168 C-63.08409794 86.11089678 -80.52677178 94.60399934 -97.734375 104.6484375 C-102.79543324 107.56196562 -105.62533508 108.82971249 -111.625 108.3125 C-115.1042124 107.04124932 -117.08985319 105.93683795 -119.5 103.125 C-121.46198731 98.22003172 -121.30120589 94.26279266 -119.61328125 89.39453125 C-116.91673792 85.2146242 -113.69305492 83.38136759 -109.4375 80.9375 C-108.63159424 80.46272217 -107.82568848 79.98794434 -106.99536133 79.4987793 C-77.31882705 62.22411792 -46.40038987 53.93439546 -12.625 49.3125 C-12.625 42.3825 -12.625 35.4525 -12.625 28.3125 C-70.85760936 28.3125 -124.77464435 59.33215363 -165.3125 98.8125 Z M141.375 269.3125 C140.385 275.5825 139.395 281.8525 138.375 288.3125 C130.940533 317.41312797 115.91707564 345.0759382 92.375 364.3125 C91.46234375 365.07433594 90.5496875 365.83617187 89.609375 366.62109375 C67.41525038 384.49349812 41.43351215 393.80518598 13.375 397.3125 C13.375 410.1825 13.375 423.0525 13.375 436.3125 C27.77322317 434.85810163 27.77322317 434.85810163 41.8125 432.125 C42.68028076 431.91141846 43.54806152 431.69783691 44.44213867 431.4777832 C59.56279554 427.60741091 73.66437759 421.71296896 87.375 414.3125 C88.90833984 413.50039063 88.90833984 413.50039063 90.47265625 412.671875 C104.13396122 405.09656188 116.16392926 395.11139902 127.375 384.3125 C128.1278125 383.62285156 128.880625 382.93320312 129.65625 382.22265625 C159.7347952 353.83330471 175.47914723 312.55067925 180.375 272.3125 C180.375 271.3225 180.375 270.3325 180.375 269.3125 C167.505 269.3125 154.635 269.3125 141.375 269.3125 Z M207.375 269.3125 C207.14425781 270.94574219 206.91351563 272.57898438 206.67578125 274.26171875 C202.57639206 302.54664835 196.14680381 329.06193164 182.375 354.3125 C182.05563477 354.9096582 181.73626953 355.50681641 181.40722656 356.12207031 C156.34458187 402.81237793 112.43639825 438.43020746 61.7265625 453.75390625 C57.30018566 455.03810778 52.84798482 456.20273339 48.375 457.3125 C47.18390625 457.61027344 45.9928125 457.90804687 44.765625 458.21484375 C37.33037279 459.93660146 29.91191369 460.9302911 22.32617188 461.66674805 C19.18123184 461.97381688 16.38465952 462.30928016 13.375 463.3125 C13.375 470.2425 13.375 477.1725 13.375 484.3125 C56.54544754 482.53227536 99.78616514 467.25880284 134.375 441.3125 C134.97602539 440.86551758 135.57705078 440.41853516 136.19628906 439.95800781 C145.1039371 433.28807621 153.34849391 426.01172756 161.375 418.3125 C162.19871094 417.53003906 163.02242187 416.74757813 163.87109375 415.94140625 C202.59428846 378.29199163 226.16113635 322.99869345 228.375 269.3125 C221.445 269.3125 214.515 269.3125 207.375 269.3125 Z " fill="#FFC800" transform="translate(255.625,-0.3125)"/>
<path d="M0 0 C6.42350398 6.72227161 9.07710141 13.90315574 8.96875 23.0859375 C8.22152244 30.32989354 4.92923187 36.80373399 -0.3125 41.8125 C-7.8265542 46.76800528 -14.29989572 48.74216692 -23.3125 47.8125 C-31.58780133 45.57986738 -37.7799426 41.77978697 -42.125 34.25 C-45.70680618 27.56164348 -46.58778861 20.53938497 -44.59375 13.1484375 C-41.48884792 4.86035211 -37.28196339 -0.03747541 -29.49609375 -4.20703125 C-19.22364106 -8.8195279 -9.0136313 -5.95239803 0 0 Z " fill="#FFC800" transform="translate(274.3125,235.1875)"/>
<path d="M0 0 C4.40557294 3.46219543 7.55117083 7.28416306 9.01171875 12.74609375 C9.90382666 20.61871611 10.11727031 28.30408899 5.01171875 34.74609375 C-0.36156228 40.5582814 -6.30049892 43.81851185 -14.30078125 44.24609375 C-21.18209436 44.02868963 -26.77572519 41.6659946 -31.875 37.03125 C-37.70249761 30.58290519 -38.44905293 24.76203501 -38.296875 16.1953125 C-37.72451979 9.79797518 -35.39277836 5.82268867 -30.80078125 1.43359375 C-21.63831469 -5.76688854 -9.82571411 -6.19657019 0 0 Z " fill="#FFC800" transform="translate(103.98828125,335.25390625)"/>
<path d="M0 0 C5.42894577 4.56328243 8.47558813 9.50592305 9.71484375 16.44140625 C10.07779091 23.93519758 8.5987504 29.70375756 3.71484375 35.44140625 C-1.72152389 41.1312176 -6.62746048 43.44575999 -14.53515625 43.87890625 C-21.49448184 43.71794226 -27.26822534 41.5395382 -32.171875 36.50390625 C-37.68384518 29.45712598 -39.08062575 23.30343359 -38.28515625 14.44140625 C-36.67131773 6.96479499 -32.57540467 2.84936707 -26.28515625 -1.30859375 C-18.20359513 -6.45733027 -7.6517196 -5.49233861 0 0 Z " fill="#FFC800" transform="translate(188.28515625,137.55859375)"/>
<path d="M0 0 C4.46901605 4.3401974 7.57378971 8.45155156 8.3359375 14.796875 C8.44129408 22.76183216 7.62888591 28.96962033 2.1640625 35.0390625 C-4.40972881 41.15948889 -10.14716591 42.48146532 -19.02734375 42.31640625 C-25.83584293 41.59171711 -30.6486592 38.19743484 -35 33 C-39.3632883 26.81867491 -40.76474031 20.92669238 -39.59375 13.3828125 C-37.87802188 6.66287737 -34.91173035 1.56097317 -29.04296875 -2.28125 C-19.07101504 -7.61996327 -8.81426876 -7.23697856 0 0 Z " fill="#FFC800" transform="translate(420,113)"/>
</svg>
