<?xml version="1.0" standalone="no"?>
<!DOCTYPE svg PUBLIC "-//W3C//DTD SVG 20010904//EN"
 "http://www.w3.org/TR/2001/REC-SVG-20010904/DTD/svg10.dtd">
<svg version="1.0" xmlns="http://www.w3.org/2000/svg"
 width="512.000000pt" height="512.000000pt" viewBox="0 0 512.000000 512.000000"
 preserveAspectRatio="xMidYMid meet">

<g transform="translate(0.000000,512.000000) scale(0.100000,-0.100000)"
fill="#FFC800" stroke="none">
<path d="M2449 5106 c-73 -21 -145 -65 -200 -123 -154 -162 -149 -422 10 -581
29 -29 56 -52 61 -52 6 0 10 37 10 82 0 68 -4 90 -27 136 -72 147 -13 321 132
388 73 35 182 34 253 -2 144 -72 200 -240 129 -386 -23 -46 -27 -68 -27 -136
0 -45 4 -82 10 -82 5 0 32 23 61 52 159 159 164 419 10 581 -109 115 -274 163
-422 123z"/>
<path d="M2420 4440 l0 -260 140 0 140 0 0 260 0 260 -140 0 -140 0 0 -260z"/>
<path d="M2303 4071 c-40 -25 -53 -49 -53 -100 0 -51 41 -95 97 -104 21 -4
117 -7 213 -7 96 0 192 3 213 7 92 15 129 117 68 185 l-29 33 -239 3 c-222 2
-240 1 -270 -17z"/>
<path d="M2340 3623 l0 -153 220 0 220 0 0 153 0 152 -220 0 -220 0 0 -152z"/>
<path d="M1412 3446 l-37 -34 -4 -128 c-2 -76 1 -142 8 -165 25 -83 118 -116
180 -63 40 33 51 77 51 199 0 122 -11 166 -51 199 -46 39 -99 36 -147 -8z"/>
<path d="M3561 3454 c-40 -33 -51 -77 -51 -199 0 -122 11 -166 51 -199 62 -53
155 -20 180 63 7 23 10 89 8 165 l-4 128 -37 34 c-48 44 -101 47 -147 8z"/>
<path d="M1700 3266 c0 -63 -3 -121 -6 -130 -6 -15 75 -16 866 -16 791 0 872
1 866 16 -3 9 -6 67 -6 130 l0 114 -860 0 -860 0 0 -114z"/>
<path d="M2338 2028 l-3 -1003 -28 -56 c-35 -72 -100 -132 -185 -172 -61 -29
-75 -32 -162 -31 -118 1 -206 28 -382 117 -113 58 -289 162 -348 207 l-25 19
58 59 59 59 -114 79 c-162 112 -323 234 -395 299 l-62 56 -5 -33 c-20 -133
-12 -285 24 -436 22 -91 91 -246 134 -297 l25 -30 63 63 c35 34 67 62 72 62 4
0 42 -37 84 -82 289 -307 673 -561 1081 -712 154 -58 210 -88 278 -149 l53
-49 52 47 c72 65 120 91 282 152 399 151 713 353 1015 651 80 78 147 142 150
142 3 0 34 -28 69 -62 l63 -63 25 30 c43 52 112 206 134 298 35 148 44 305 24
436 l-5 34 -42 -40 c-69 -67 -195 -164 -367 -283 l-161 -113 55 -56 c31 -31
56 -60 56 -63 0 -13 -246 -163 -368 -225 -176 -89 -264 -116 -382 -117 -87 -1
-101 2 -162 31 -85 40 -150 100 -185 172 l-28 56 -3 1003 -3 1002 -219 0 -219
0 -3 -1002z"/>
</g>
</svg>
