<?xml version="1.0" standalone="no"?>
<!DOCTYPE svg PUBLIC "-//W3C//DTD SVG 20010904//EN"
 "http://www.w3.org/TR/2001/REC-SVG-20010904/DTD/svg10.dtd">
<svg version="1.0" xmlns="http://www.w3.org/2000/svg"
 width="512.000000pt" height="512.000000pt" viewBox="0 0 512.000000 512.000000"
 preserveAspectRatio="xMidYMid meet">

<g transform="translate(0.000000,512.000000) scale(0.100000,-0.100000)"
fill="#FFC800" stroke="none">
<path d="M435 4252 c-134 -35 -230 -89 -329 -188 -80 -80 -100 -122 -100 -209
0 -107 53 -189 154 -234 96 -44 193 -23 286 60 118 108 169 102 314 -35 179
-169 369 -237 575 -206 160 24 268 82 405 215 139 135 189 135 324 4 97 -96
166 -143 260 -180 156 -60 315 -61 469 -1 97 37 169 87 269 183 138 132 174
131 323 -10 161 -153 297 -214 485 -215 195 -1 333 60 506 225 126 121 180
124 297 21 72 -64 116 -82 196 -82 94 0 175 49 218 133 22 42 27 65 27 122 0
92 -21 131 -123 227 -141 133 -316 198 -501 185 -181 -13 -331 -89 -480 -243
-59 -61 -83 -74 -136 -74 -50 0 -80 19 -158 100 -79 82 -130 119 -219 160 -89
42 -169 60 -265 60 -207 0 -392 -85 -537 -248 -46 -52 -82 -72 -129 -72 -57 0
-81 15 -185 113 -118 112 -217 166 -351 193 -234 46 -493 -46 -643 -229 -42
-52 -90 -77 -144 -77 -48 0 -80 20 -168 105 -105 101 -172 143 -295 185 -92
31 -250 36 -345 12z"/>
<path d="M510 2980 c-167 -23 -328 -111 -433 -238 -51 -61 -67 -94 -74 -151
-12 -103 50 -217 142 -260 55 -26 155 -28 210 -5 21 8 61 37 89 63 73 68 95
81 139 81 53 0 86 -20 146 -89 132 -153 336 -251 519 -251 75 0 199 31 279 71
72 35 185 122 226 174 64 80 134 111 200 86 13 -5 69 -54 123 -109 85 -85 112
-105 194 -146 155 -76 289 -93 434 -56 149 38 232 88 363 220 49 49 100 92
116 95 60 16 95 -2 186 -94 128 -131 220 -187 363 -221 105 -25 181 -25 285 0
142 34 273 115 374 231 101 117 166 120 277 15 31 -29 71 -60 87 -69 115 -58
262 -9 333 111 22 39 27 59 27 117 0 90 -24 141 -107 223 -160 158 -348 226
-552 201 -158 -20 -287 -89 -421 -225 -89 -90 -112 -106 -160 -106 -47 0 -71
16 -160 107 -44 45 -105 97 -135 117 -202 131 -445 147 -655 41 -82 -41 -176
-116 -225 -179 -46 -59 -91 -86 -141 -86 -52 1 -70 13 -182 125 -145 146 -288
209 -472 209 -196 1 -351 -73 -510 -240 -68 -72 -103 -94 -150 -94 -47 0 -86
24 -141 86 -164 183 -385 274 -594 246z"/>
<path d="M520 1679 c-164 -17 -305 -89 -428 -218 -83 -88 -108 -173 -79 -272
41 -138 184 -211 329 -167 24 7 67 36 105 70 69 63 97 78 144 78 44 0 65 -14
154 -100 172 -166 324 -228 533 -217 117 6 171 20 265 68 79 39 114 66 207
155 84 80 106 94 149 94 51 0 79 -17 175 -107 154 -146 274 -202 451 -211 212
-9 366 53 530 215 85 85 114 103 166 103 44 0 65 -14 154 -100 172 -166 324
-228 533 -217 59 3 129 13 155 21 118 38 246 121 321 209 65 76 133 103 200
77 14 -5 53 -35 87 -66 75 -69 110 -84 194 -84 118 0 209 67 242 179 29 103 1
189 -95 286 -139 140 -295 207 -485 206 -187 -1 -323 -61 -481 -211 -156 -149
-186 -149 -343 1 -156 149 -294 209 -478 210 -112 1 -206 -20 -298 -67 -83
-41 -135 -82 -228 -176 -50 -50 -75 -68 -103 -74 -63 -11 -113 11 -180 80
-161 166 -315 237 -511 237 -193 0 -331 -61 -503 -225 -139 -131 -176 -130
-322 8 -53 50 -122 106 -153 124 -119 71 -268 104 -407 91z"/>
</g>
</svg>
