<?xml version="1.0" standalone="no"?>
<!DOCTYPE svg PUBLIC "-//W3C//DTD SVG 20010904//EN"
 "http://www.w3.org/TR/2001/REC-SVG-20010904/DTD/svg10.dtd">
<svg version="1.0" xmlns="http://www.w3.org/2000/svg"
 width="512.000000pt" height="512.000000pt" viewBox="0 0 512.000000 512.000000"
 preserveAspectRatio="xMidYMid meet">

<g transform="translate(0.000000,512.000000) scale(0.100000,-0.100000)"
fill="#FFC800" stroke="none">
<path d="M3395 4314 c-83 -43 -104 -92 -105 -241 l0 -113 740 0 740 0 0 120
c0 85 -4 129 -14 148 -19 36 -65 78 -99 91 -19 7 -229 11 -630 11 -526 0 -606
-2 -632 -16z"/>
<path d="M3088 3856 c-53 -14 -106 -52 -141 -99 -49 -67 -52 -85 -52 -357 l0
-255 938 -3 937 -2 0 365 0 365 -817 -1 c-625 0 -829 -3 -865 -13z m1257 -236
l0 -45 -510 0 -510 0 -3 33 c-7 67 -43 62 515 60 l508 -3 0 -45z m0 -230 l0
-45 -512 -3 -513 -2 0 43 c0 24 3 47 7 50 3 4 234 6 512 5 l506 -3 0 -45z"/>
<path d="M1917 3039 c-20 -5 -58 -20 -85 -34 -92 -48 -148 -114 -181 -213 -21
-62 -22 -71 -19 -895 l3 -832 27 -57 c35 -76 95 -138 170 -179 l63 -34 1475 0
1475 0 67 33 c78 38 138 100 177 182 l26 55 0 850 0 850 -31 65 c-39 83 -101
145 -184 184 l-65 31 -1440 2 c-817 0 -1456 -3 -1478 -8z m1633 -219 c192 -52
369 -225 431 -420 93 -290 -49 -626 -321 -758 -87 -42 -204 -72 -284 -72 -197
0 -415 116 -525 279 -237 350 -77 827 322 962 107 37 264 40 377 9z m-1240
-1715 l0 -225 -50 0 -50 0 0 225 0 225 50 0 50 0 0 -225z m550 0 l0 -225 -45
0 -45 0 0 225 0 225 45 0 45 0 0 -225z m560 0 l0 -225 -45 0 -45 0 0 225 0
225 45 0 45 0 0 -225z m560 0 l0 -225 -45 0 -45 0 0 225 0 225 45 0 45 0 0
-225z m560 0 l0 -225 -50 0 -50 0 0 225 0 225 50 0 50 0 0 -225z"/>
<path d="M3233 2408 l-181 -313 161 -3 161 -3 -144 -144 -145 -145 65 -65 65
-65 297 297 298 298 -220 5 -220 5 81 140 c44 77 91 158 104 181 l24 41 -73
41 c-41 23 -78 42 -83 42 -6 0 -91 -141 -190 -312z"/>
<path d="M1045 2541 c-51 -23 -101 -79 -114 -128 -15 -52 -15 -944 0 -996 13
-47 60 -102 110 -128 35 -17 60 -19 269 -19 l230 0 0 645 0 645 -227 0 c-199
0 -233 -3 -268 -19z"/>
<path d="M152 2457 c-53 -20 -103 -66 -128 -121 -24 -51 -24 -51 -24 -436 0
-383 0 -385 24 -435 25 -54 71 -100 123 -122 83 -34 214 0 268 70 52 69 55 99
55 487 0 386 -4 419 -54 484 -54 71 -175 105 -264 73z"/>
<path d="M560 1905 l0 -235 135 0 135 0 0 235 0 235 -135 0 -135 0 0 -235z"/>
</g>
</svg>
