<?xml version="1.0" standalone="no"?>
<!DOCTYPE svg PUBLIC "-//W3C//DTD SVG 20010904//EN"
 "http://www.w3.org/TR/2001/REC-SVG-20010904/DTD/svg10.dtd">
<svg version="1.0" xmlns="http://www.w3.org/2000/svg"
 width="512.000000pt" height="512.000000pt" viewBox="0 0 512.000000 512.000000"
 preserveAspectRatio="xMidYMid meet">

<g transform="translate(0.000000,512.000000) scale(0.100000,-0.100000)"
fill="#FFC800" stroke="none">
<path d="M767 5110 c-349 -63 -630 -314 -733 -655 -23 -77 -27 -109 -28 -225
-1 -99 4 -156 17 -212 10 -43 21 -78 25 -78 4 0 30 40 59 88 164 278 399 548
660 758 102 83 279 205 361 249 28 15 52 32 52 36 0 29 -308 58 -413 39z"/>
<path d="M4105 5114 c-11 -3 -53 -12 -92 -20 -40 -8 -73 -18 -73 -22 0 -4 22
-19 49 -35 268 -150 589 -425 793 -677 81 -101 205 -280 254 -367 16 -29 32
-53 36 -53 4 0 15 35 25 78 13 56 18 114 17 212 -1 116 -5 148 -28 223 -94
311 -325 542 -633 633 -67 19 -116 26 -208 29 -66 2 -129 2 -140 -1z"/>
<path d="M2315 5104 c-16 -2 -82 -11 -145 -20 -141 -19 -382 -80 -516 -129
-242 -90 -511 -244 -704 -405 l-90 -75 214 -214 215 -214 68 55 c668 544 1731
544 2407 0 l68 -55 214 214 213 214 -70 60 c-335 285 -754 472 -1236 551 -93
15 -562 28 -638 18z"/>
<path d="M585 4189 c-286 -337 -476 -765 -552 -1239 -26 -165 -26 -615 0 -780
24 -149 86 -390 132 -516 90 -242 244 -511 405 -704 l75 -90 214 214 214 214
-55 68 c-544 677 -544 1731 0 2408 l55 68 -214 214 -214 213 -60 -70z"/>
<path d="M4261 4046 l-214 -214 55 -68 c265 -332 408 -753 408 -1204 0 -449
-145 -877 -408 -1204 l-55 -68 214 -214 214 -214 75 91 c228 275 394 606 483
964 62 246 72 337 72 645 0 308 -10 399 -72 645 -86 344 -258 693 -461 938
-31 37 -66 79 -77 92 l-20 25 -214 -214z"/>
<path d="M2434 4209 c-319 -22 -633 -143 -889 -344 -91 -72 -240 -221 -307
-310 -323 -426 -418 -1008 -248 -1518 81 -241 201 -436 384 -626 438 -451
1058 -611 1671 -429 595 176 990 611 1127 1238 20 93 22 133 22 340 0 207 -2
247 -22 340 -75 341 -220 617 -443 839 -256 256 -603 418 -989 460 -153 17
-189 18 -306 10z"/>
<path d="M23 1103 c-13 -57 -18 -114 -17 -213 1 -115 5 -148 28 -223 93 -311
322 -540 633 -633 75 -23 108 -27 223 -28 99 -1 156 4 212 17 43 10 78 21 78
25 0 4 -24 20 -53 36 -85 48 -260 170 -365 253 -252 202 -528 524 -679 794
-16 27 -31 49 -35 49 -4 0 -15 -35 -25 -77z"/>
<path d="M5036 1127 c-103 -183 -280 -411 -456 -587 -179 -179 -401 -351 -587
-456 -29 -16 -53 -32 -53 -36 0 -4 35 -15 78 -25 56 -13 113 -18 212 -17 115
1 148 5 223 28 311 93 539 322 633 633 23 75 27 107 28 223 1 98 -4 156 -17
213 -10 42 -21 77 -25 77 -4 0 -20 -24 -36 -53z"/>
<path d="M1072 857 l-212 -212 88 -72 c350 -288 750 -464 1222 -539 165 -27
615 -27 780 0 433 69 823 231 1145 477 49 38 107 84 127 102 l37 33 -213 213
-214 214 -68 -56 c-675 -542 -1739 -543 -2405 -1 -36 30 -68 54 -70 54 -2 0
-100 -96 -217 -213z"/>
</g>
</svg>
