<?xml version="1.0" encoding="UTF-8"?>
<svg version="1.1" xmlns="http://www.w3.org/2000/svg" width="512" height="512">
<path d="M0 0 C0.96245673 -0.00445784 1.92491347 -0.00891569 2.91653556 -0.01350862 C4.50609493 -0.01323207 4.50609493 -0.01323207 6.12776661 -0.01294994 C7.81373541 -0.01846498 7.81373541 -0.01846498 9.53376418 -0.02409142 C13.31997043 -0.03515101 17.10614926 -0.03897596 20.89236927 -0.04278088 C23.59901128 -0.04851065 26.30564916 -0.05567747 29.01228809 -0.0626936 C37.14907353 -0.08245714 45.28586022 -0.09252419 53.42266366 -0.10142139 C57.25449865 -0.10580456 61.08633226 -0.11117131 64.91816616 -0.11641026 C77.65627442 -0.13342261 90.39438182 -0.14791669 103.13249969 -0.155159 C106.43819842 -0.15706889 109.74389714 -0.15898922 113.04959583 -0.16094494 C113.87121052 -0.16142868 114.69282521 -0.16191242 115.53933731 -0.16241082 C128.84836309 -0.17071077 142.15729897 -0.19604703 155.46628549 -0.22852562 C169.13053085 -0.26159927 182.79473054 -0.27960804 196.45901614 -0.28280324 C204.13093057 -0.28496808 211.80271393 -0.29371287 219.47458935 -0.31926441 C226.0085031 -0.34097565 232.54225394 -0.34901981 239.07619967 -0.33929763 C242.40897815 -0.33475394 245.74114812 -0.33882565 249.07392597 -0.35605907 C252.69054576 -0.37371415 256.30631267 -0.36670208 259.92293262 -0.35352612 C260.97148526 -0.36449536 262.0200379 -0.37546461 263.10036486 -0.38676625 C269.3473521 -0.33181497 274.14849149 0.50636159 279.34280872 4.13422108 C283.916173 8.94211685 284.75647749 13.04323055 284.69046497 19.49359608 C283.97515242 24.92675656 281.09860089 28.77348215 276.84280872 32.07172108 C272.77106055 33.80221405 268.89685037 34.25908037 264.49919796 34.26285553 C263.54607601 34.26607998 262.59295407 34.26930442 261.61094964 34.27262658 C260.57195074 34.27107798 259.53295185 34.26952937 258.46246815 34.26793385 C257.35240874 34.2701994 256.24234934 34.27246496 255.09865177 34.27479917 C251.37159591 34.2811394 247.64457641 34.28030978 243.91751575 34.27948475 C241.2483656 34.28247621 238.57921832 34.28585032 235.91006947 34.28966236 C229.40792592 34.29796573 222.90579143 34.30071706 216.40364303 34.30127474 C211.11825614 34.30175002 205.83287225 34.30380539 200.54748631 34.30697536 C185.56067745 34.31578088 170.57387575 34.32039487 155.58706428 34.31964489 C154.77926756 34.31960493 153.97147085 34.31956498 153.13919544 34.31952381 C151.92602014 34.31946249 151.92602014 34.31946249 150.68833624 34.31939993 C137.57925508 34.31899343 124.47020263 34.32856421 111.36112978 34.34266218 C97.89909791 34.35702545 84.43708004 34.3639324 70.97504032 34.3630684 C63.41780915 34.36273643 55.86060809 34.36548373 48.30338383 34.37624645 C41.86943224 34.38535078 35.43552441 34.38752724 29.00156917 34.38073703 C25.71970003 34.37747155 22.43793233 34.37850266 19.15606785 34.38609028 C15.59634209 34.3937878 12.03683745 34.38918004 8.47711658 34.38145924 C7.44257914 34.3866028 6.40804169 34.39174636 5.34215462 34.39704579 C-1.34996008 34.36493219 -7.08430614 34.29778358 -12.40719128 29.82172108 C-16.73299287 24.65479139 -18.23667746 21.40768691 -18.00484753 14.63422108 C-17.25757639 9.26058596 -14.90657484 6.10313078 -10.59469128 2.75922108 C-6.85930236 0.69283572 -4.19930456 0.00901708 0 0 Z M8.34280872 13.13422108 C7.68280872 13.79422108 7.02280872 14.45422108 6.34280872 15.13422108 C6.6632227 17.73702676 6.6632227 17.73702676 7.34280872 20.13422108 C9.17981661 20.90664377 9.17981661 20.90664377 11.34280872 21.13422108 C13.25947539 20.05088774 13.25947539 20.05088774 14.34280872 18.13422108 C14.11523141 15.97122897 14.11523141 15.97122897 13.34280872 14.13422108 C10.9456144 13.45463505 10.9456144 13.45463505 8.34280872 13.13422108 Z M43.34280872 13.13422108 C42.68280872 13.79422108 42.02280872 14.45422108 41.34280872 15.13422108 C41.6632227 17.73702676 41.6632227 17.73702676 42.34280872 20.13422108 C44.19005925 20.82581509 44.19005925 20.82581509 46.34280872 21.13422108 C47.33280872 20.47422108 48.32280872 19.81422108 49.34280872 19.13422108 C49.01280872 17.48422108 48.68280872 15.83422108 48.34280872 14.13422108 C45.9456144 13.45463505 45.9456144 13.45463505 43.34280872 13.13422108 Z M78.34280872 13.13422108 C77.68280872 13.79422108 77.02280872 14.45422108 76.34280872 15.13422108 C76.6632227 17.73702676 76.6632227 17.73702676 77.34280872 20.13422108 C79.74000304 20.8138071 79.74000304 20.8138071 82.34280872 21.13422108 C83.00280872 20.47422108 83.66280872 19.81422108 84.34280872 19.13422108 C84.02239475 16.5314154 84.02239475 16.5314154 83.34280872 14.13422108 C80.9456144 13.45463505 80.9456144 13.45463505 78.34280872 13.13422108 Z M113.34280872 13.13422108 C112.68280872 14.78422108 112.02280872 16.43422108 111.34280872 18.13422108 C112.57089964 19.77977807 112.57089964 19.77977807 114.34280872 21.13422108 C116.50580083 20.90664377 116.50580083 20.90664377 118.34280872 20.13422108 C119.02239475 17.73702676 119.02239475 17.73702676 119.34280872 15.13422108 C118.68280872 14.47422108 118.02280872 13.81422108 117.34280872 13.13422108 C116.02280872 13.13422108 114.70280872 13.13422108 113.34280872 13.13422108 Z M149.34280872 13.13422108 C148.68280872 13.79422108 148.02280872 14.45422108 147.34280872 15.13422108 C147.6632227 17.73702676 147.6632227 17.73702676 148.34280872 20.13422108 C150.17981661 20.90664377 150.17981661 20.90664377 152.34280872 21.13422108 C154.11471781 19.77977807 154.11471781 19.77977807 155.34280872 18.13422108 C154.68280872 16.48422108 154.02280872 14.83422108 153.34280872 13.13422108 C152.02280872 13.13422108 150.70280872 13.13422108 149.34280872 13.13422108 Z M184.34280872 13.13422108 C183.68280872 13.79422108 183.02280872 14.45422108 182.34280872 15.13422108 C182.6632227 17.73702676 182.6632227 17.73702676 183.34280872 20.13422108 C185.17981661 20.90664377 185.17981661 20.90664377 187.34280872 21.13422108 C189.25947539 20.05088774 189.25947539 20.05088774 190.34280872 18.13422108 C190.11523141 15.97122897 190.11523141 15.97122897 189.34280872 14.13422108 C186.9456144 13.45463505 186.9456144 13.45463505 184.34280872 13.13422108 Z M219.34280872 13.13422108 C218.68280872 13.79422108 218.02280872 14.45422108 217.34280872 15.13422108 C217.6632227 17.73702676 217.6632227 17.73702676 218.34280872 20.13422108 C220.74000304 20.8138071 220.74000304 20.8138071 223.34280872 21.13422108 C224.00280872 20.47422108 224.66280872 19.81422108 225.34280872 19.13422108 C225.02239475 16.5314154 225.02239475 16.5314154 224.34280872 14.13422108 C221.9456144 13.45463505 221.9456144 13.45463505 219.34280872 13.13422108 Z M254.34280872 13.13422108 C253.68280872 13.79422108 253.02280872 14.45422108 252.34280872 15.13422108 C252.6632227 17.73702676 252.6632227 17.73702676 253.34280872 20.13422108 C255.74000304 20.8138071 255.74000304 20.8138071 258.34280872 21.13422108 C259.00280872 20.47422108 259.66280872 19.81422108 260.34280872 19.13422108 C260.02239475 16.5314154 260.02239475 16.5314154 259.34280872 14.13422108 C256.9456144 13.45463505 256.9456144 13.45463505 254.34280872 13.13422108 Z " fill="#FFC800" transform="translate(122.6571912765503,271.86577892303467)"/>
<path d="M0 0 C0.95809769 -0.00384115 1.91619538 -0.00768229 2.90332633 -0.01163983 C3.95301996 -0.01077335 5.00271359 -0.00990687 6.08421612 -0.00901413 C7.2015882 -0.01198525 8.31896029 -0.01495637 9.47019213 -0.01801753 C13.22799015 -0.02671444 16.98575635 -0.02821362 20.74356365 -0.02970505 C23.43227063 -0.03433248 26.1209747 -0.03933638 28.80967999 -0.04475021 C36.12372779 -0.05832816 43.43777012 -0.0643573 50.75182843 -0.06876087 C55.31889064 -0.07152399 59.88595073 -0.07576145 64.45301151 -0.08026505 C77.09851766 -0.09245659 89.7440221 -0.1027564 102.389534 -0.10614014 C103.60337009 -0.10646949 103.60337009 -0.10646949 104.84172813 -0.10680549 C105.65288327 -0.10702377 106.4640384 -0.10724204 107.29977399 -0.10746694 C108.94347211 -0.1079104 110.58717022 -0.10835697 112.23086834 -0.10880661 C113.04619861 -0.10902804 113.86152888 -0.10924947 114.70156612 -0.10947761 C127.91418842 -0.11342602 141.12675558 -0.13088186 154.33935658 -0.15416613 C167.90531808 -0.17788014 181.47125192 -0.190342 195.03723449 -0.19150805 C202.65374358 -0.19242474 210.27018081 -0.19817558 217.88667011 -0.21632767 C224.37189592 -0.23172926 230.85702765 -0.23684876 237.34226827 -0.22858956 C240.65050502 -0.22468334 243.95851274 -0.22724398 247.26673412 -0.23964691 C250.8550657 -0.25231206 254.4429097 -0.24651868 258.0312376 -0.23606491 C259.07423907 -0.24412132 260.11724053 -0.25217772 261.1918481 -0.26047826 C268.47528914 -0.21078812 273.40032337 0.663266 279.06070232 5.56892776 C282.95996432 10.13663468 283.75364613 13.59585936 283.63101482 19.52595901 C282.83322415 24.95582004 279.99529525 28.81045506 275.68570232 32.06892776 C271.88384082 33.72614944 268.63552512 34.25661708 264.49640465 34.26285553 C263.05925811 34.26861725 263.05925811 34.26861725 261.59307832 34.27449536 C260.54338469 34.27362888 259.49369106 34.2727624 258.41218853 34.27186966 C257.29481644 34.27484078 256.17744436 34.2778119 255.02621251 34.28087306 C251.26841449 34.28956997 247.51064829 34.29106915 243.752841 34.29256058 C241.06413402 34.29718801 238.37542994 34.30219191 235.68672466 34.30760574 C228.37267685 34.32118369 221.05863453 34.32721283 213.74457622 34.3316164 C209.17751401 34.33437952 204.61045391 34.33861698 200.04339314 34.34312057 C187.39788699 34.35531212 174.75238254 34.36561193 162.10687065 34.36899567 C160.89303455 34.36932502 160.89303455 34.36932502 159.65467652 34.36966102 C158.84352138 34.3698793 158.03236625 34.37009757 157.19663066 34.37032247 C155.55293254 34.37076593 153.90923442 34.37121249 152.26553631 34.37166214 C151.45020604 34.37188357 150.63487577 34.372105 149.79483853 34.37233314 C136.58221623 34.37628155 123.36964907 34.39373739 110.15704807 34.41702166 C96.59108656 34.44073567 83.02515273 34.45319753 69.45917016 34.45436358 C61.84266107 34.45528027 54.22622383 34.46103111 46.60973454 34.4791832 C40.12450873 34.49458479 33.639377 34.49970429 27.15413638 34.49144509 C23.84589963 34.48753887 20.53789191 34.49009951 17.22967052 34.50250244 C13.64133894 34.51516759 10.05349495 34.50937421 6.46516705 34.49892044 C5.42216558 34.50697685 4.37916412 34.51503325 3.30455655 34.52333379 C-3.97888449 34.47364365 -8.90391872 33.59958953 -14.56429768 28.69392776 C-18.50712813 24.07518352 -19.20532589 20.65146872 -19.06429768 14.66658401 C-18.40148463 9.28951319 -16.01381499 6.1305248 -11.75179768 2.75642776 C-7.70313597 0.56340267 -4.57224667 0.00689125 0 0 Z M7.24820232 13.13142776 C6.58820232 13.79142776 5.92820232 14.45142776 5.24820232 15.13142776 C5.5686163 17.73423345 5.5686163 17.73423345 6.24820232 20.13142776 C8.08521021 20.90385046 8.08521021 20.90385046 10.24820232 21.13142776 C12.02011141 19.77698476 12.02011141 19.77698476 13.24820232 18.13142776 C12.58820232 16.48142776 11.92820232 14.83142776 11.24820232 13.13142776 C9.92820232 13.13142776 8.60820232 13.13142776 7.24820232 13.13142776 Z M42.24820232 13.13142776 C41.58820232 13.79142776 40.92820232 14.45142776 40.24820232 15.13142776 C40.5686163 17.73423345 40.5686163 17.73423345 41.24820232 20.13142776 C43.64539664 20.81101379 43.64539664 20.81101379 46.24820232 21.13142776 C46.90820232 20.47142776 47.56820232 19.81142776 48.24820232 19.13142776 C47.92778835 16.52862208 47.92778835 16.52862208 47.24820232 14.13142776 C44.851008 13.45184174 44.851008 13.45184174 42.24820232 13.13142776 Z M77.24820232 13.13142776 C76.58820232 13.79142776 75.92820232 14.45142776 75.24820232 15.13142776 C75.5686163 17.73423345 75.5686163 17.73423345 76.24820232 20.13142776 C78.64539664 20.81101379 78.64539664 20.81101379 81.24820232 21.13142776 C81.90820232 20.47142776 82.56820232 19.81142776 83.24820232 19.13142776 C82.92778835 16.52862208 82.92778835 16.52862208 82.24820232 14.13142776 C79.851008 13.45184174 79.851008 13.45184174 77.24820232 13.13142776 Z M111.43570232 14.31892776 C109.99529905 16.08196886 109.99529905 16.08196886 110.56070232 18.31892776 C110.78757732 18.91705276 111.01445232 19.51517776 111.24820232 20.13142776 C113.64539664 20.81101379 113.64539664 20.81101379 116.24820232 21.13142776 C116.90820232 20.47142776 117.56820232 19.81142776 118.24820232 19.13142776 C117.92778835 16.52862208 117.92778835 16.52862208 117.24820232 14.13142776 C114.24071318 12.97280471 114.24071318 12.97280471 111.43570232 14.31892776 Z M148.24820232 13.13142776 C147.58820232 13.79142776 146.92820232 14.45142776 146.24820232 15.13142776 C146.5686163 17.73423345 146.5686163 17.73423345 147.24820232 20.13142776 C149.08521021 20.90385046 149.08521021 20.90385046 151.24820232 21.13142776 C153.16486899 20.04809443 153.16486899 20.04809443 154.24820232 18.13142776 C154.02062501 15.96843566 154.02062501 15.96843566 153.24820232 14.13142776 C150.851008 13.45184174 150.851008 13.45184174 148.24820232 13.13142776 Z M183.24820232 13.13142776 C182.58820232 13.79142776 181.92820232 14.45142776 181.24820232 15.13142776 C181.5686163 17.73423345 181.5686163 17.73423345 182.24820232 20.13142776 C184.08521021 20.90385046 184.08521021 20.90385046 186.24820232 21.13142776 C188.16486899 20.04809443 188.16486899 20.04809443 189.24820232 18.13142776 C189.02062501 15.96843566 189.02062501 15.96843566 188.24820232 14.13142776 C185.851008 13.45184174 185.851008 13.45184174 183.24820232 13.13142776 Z M218.24820232 13.13142776 C217.58820232 13.79142776 216.92820232 14.45142776 216.24820232 15.13142776 C216.5686163 17.73423345 216.5686163 17.73423345 217.24820232 20.13142776 C219.64539664 20.81101379 219.64539664 20.81101379 222.24820232 21.13142776 C222.90820232 20.47142776 223.56820232 19.81142776 224.24820232 19.13142776 C223.92778835 16.52862208 223.92778835 16.52862208 223.24820232 14.13142776 C220.851008 13.45184174 220.851008 13.45184174 218.24820232 13.13142776 Z M253.24820232 13.13142776 C252.58820232 14.78142776 251.92820232 16.43142776 251.24820232 18.13142776 C252.47629324 19.77698476 252.47629324 19.77698476 254.24820232 21.13142776 C256.41119443 20.90385046 256.41119443 20.90385046 258.24820232 20.13142776 C258.92778835 17.73423345 258.92778835 17.73423345 259.24820232 15.13142776 C258.58820232 14.47142776 257.92820232 13.81142776 257.24820232 13.13142776 C255.92820232 13.13142776 254.60820232 13.13142776 253.24820232 13.13142776 Z " fill="#FFC800" transform="translate(123.75179767608643,64.86857223510742)"/>
<path d="M0 0 C0.97563267 -0.00445784 1.95126533 -0.00891569 2.95646262 -0.01350862 C4.5757833 -0.01323207 4.5757833 -0.01323207 6.22781754 -0.01294994 C7.36868765 -0.01662663 8.50955777 -0.02030332 9.6849997 -0.02409142 C12.86134447 -0.03322932 16.03765887 -0.03783038 19.21401453 -0.04048073 C22.63608385 -0.04437981 26.05813815 -0.05395843 29.48019791 -0.0626936 C37.74939011 -0.08246953 46.01858357 -0.09252577 54.28779352 -0.10142139 C58.1801584 -0.10580255 62.07252191 -0.11116981 65.96488571 -0.11641026 C78.90111763 -0.13342387 91.8373487 -0.14791848 104.77359009 -0.155159 C108.13172532 -0.15706895 111.48986055 -0.15898927 114.84799576 -0.16094494 C116.09999666 -0.16167055 116.09999666 -0.16167055 117.37729052 -0.16241082 C130.90112566 -0.17071273 144.4248724 -0.19605175 157.94866893 -0.22852562 C171.82757531 -0.26158095 185.70643674 -0.27960638 199.5853827 -0.28280324 C207.38020829 -0.28496978 215.17490496 -0.29373944 222.96969223 -0.31926441 C229.60762446 -0.34095065 236.24539648 -0.34903215 242.88336012 -0.33929763 C246.2705628 -0.33474668 249.65716623 -0.33885718 253.04436874 -0.35605907 C256.71647688 -0.37366721 260.38774109 -0.36672544 264.05984879 -0.35352612 C265.66578514 -0.36997998 265.66578514 -0.36997998 267.30416465 -0.38676625 C273.33584345 -0.33427757 276.80329155 0.11732386 281.39780045 4.13422108 C285.73236848 8.93739106 286.71101352 12.54647441 286.60873795 18.85687733 C286.15740183 23.72963577 283.97874974 26.82007132 280.39780045 29.94672108 C276.65375342 32.67675537 274.20945194 33.25896362 269.7037878 33.26564884 C268.73313088 33.26948999 267.76247396 33.27333113 266.76240319 33.27728868 C265.15912461 33.27598895 265.15912461 33.27598895 263.52345657 33.27466297 C262.38989914 33.27763409 261.2563417 33.28060522 260.08843404 33.28366637 C256.26991795 33.29237473 252.45143312 33.29386342 248.63290787 33.29535389 C245.90331715 33.29944162 243.17372975 33.3049842 240.44414139 33.31039906 C233.01440269 33.32398591 225.58466939 33.33000761 218.15492034 33.33440971 C213.51667971 33.33717147 208.87844117 33.3414087 204.24020195 33.34591389 C191.40086339 33.35810688 178.5615265 33.36840622 165.72218227 33.37178898 C164.90030108 33.37200854 164.07841989 33.37222811 163.2316332 33.37245433 C162.40777472 33.37267261 161.58391624 33.37289089 160.73509234 33.37311578 C159.06561418 33.37355925 157.39613602 33.37400581 155.72665787 33.37445545 C154.89853733 33.37467688 154.07041679 33.37489831 153.21720169 33.37512645 C139.7969118 33.37907496 126.37667619 33.39653045 112.95640727 33.41981497 C99.18142999 33.44352222 85.40647996 33.45599054 71.63148195 33.4571569 C63.89594175 33.458074 56.16047228 33.46383511 48.42495155 33.48197651 C41.83829741 33.49736903 35.25173586 33.50250299 28.66506716 33.49423841 C25.30427382 33.49032884 21.94381875 33.49290459 18.58302307 33.50529575 C14.93955205 33.51794323 11.29656246 33.51217722 7.65309525 33.50171375 C6.05985492 33.51379836 6.05985492 33.51379836 4.43442792 33.5261271 C-1.76549896 33.48437198 -6.46016487 33.00011494 -11.2467308 28.63422108 C-15.68993992 22.92789231 -16.39747895 18.21441679 -15.60219955 11.13422108 C-12.31380356 4.55742908 -7.4494713 0.01573885 0 0 Z M11.39780045 12.13422108 C10.40780045 12.79422108 9.41780045 13.45422108 8.39780045 14.13422108 C8.06436494 16.67630079 8.06436494 16.67630079 8.39780045 19.13422108 C9.45090321 20.4042543 9.45090321 20.4042543 11.83530045 20.32172108 C14.5651472 20.4026209 14.5651472 20.4026209 16.39780045 18.13422108 C16.3839718 16.07707275 16.3839718 16.07707275 15.39780045 14.13422108 C13.41402375 12.84985374 13.41402375 12.84985374 11.39780045 12.13422108 Z M44.39780045 13.13422108 C43.71821442 15.5314154 43.71821442 15.5314154 43.39780045 18.13422108 C44.05780045 18.79422108 44.71780045 19.45422108 45.39780045 20.13422108 C48.00060613 19.8138071 48.00060613 19.8138071 50.39780045 19.13422108 C51.40891137 16.0850888 51.40891137 16.0850888 50.39780045 13.13422108 C48.41780045 13.13422108 46.43780045 13.13422108 44.39780045 13.13422108 Z M82.39780045 12.13422108 C81.07780045 13.12422108 79.75780045 14.11422108 78.39780045 15.13422108 C78.89536136 17.89063524 78.89536136 17.89063524 80.39780045 20.13422108 C82.89780045 20.30088774 82.89780045 20.30088774 85.39780045 20.13422108 C86.69413665 19.06776993 86.69413665 19.06776993 86.46030045 16.57172108 C86.43967545 15.76734608 86.41905045 14.96297108 86.39780045 14.13422108 C85.07780045 13.47422108 83.75780045 12.81422108 82.39780045 12.13422108 Z M117.39780045 12.13422108 C116.07780045 13.12422108 114.75780045 14.11422108 113.39780045 15.13422108 C114.05780045 16.78422108 114.71780045 18.43422108 115.39780045 20.13422108 C117.0639195 20.17694208 118.73162929 20.1748594 120.39780045 20.13422108 C121.69413665 19.06776993 121.69413665 19.06776993 121.46030045 16.57172108 C121.43967545 15.76734608 121.41905045 14.96297108 121.39780045 14.13422108 C120.07780045 13.47422108 118.75780045 12.81422108 117.39780045 12.13422108 Z M152.39780045 12.13422108 C151.40780045 12.79422108 150.41780045 13.45422108 149.39780045 14.13422108 C149.06436494 16.67630079 149.06436494 16.67630079 149.39780045 19.13422108 C150.46425159 20.43055728 150.46425159 20.43055728 152.96030045 20.19672108 C153.76467545 20.17609608 154.56905045 20.15547108 155.39780045 20.13422108 C156.05780045 18.48422108 156.71780045 16.83422108 157.39780045 15.13422108 C155.74780045 14.14422108 154.09780045 13.15422108 152.39780045 12.13422108 Z M187.39780045 12.13422108 C186.40780045 12.79422108 185.41780045 13.45422108 184.39780045 14.13422108 C184.06436494 16.67630079 184.06436494 16.67630079 184.39780045 19.13422108 C185.45090321 20.4042543 185.45090321 20.4042543 187.83530045 20.32172108 C190.5651472 20.4026209 190.5651472 20.4026209 192.39780045 18.13422108 C192.3839718 16.07707275 192.3839718 16.07707275 191.39780045 14.13422108 C189.41402375 12.84985374 189.41402375 12.84985374 187.39780045 12.13422108 Z M220.39780045 13.13422108 C219.71821442 15.5314154 219.71821442 15.5314154 219.39780045 18.13422108 C220.05780045 18.79422108 220.71780045 19.45422108 221.39780045 20.13422108 C224.00060613 19.8138071 224.00060613 19.8138071 226.39780045 19.13422108 C227.40891137 16.0850888 227.40891137 16.0850888 226.39780045 13.13422108 C224.41780045 13.13422108 222.43780045 13.13422108 220.39780045 13.13422108 Z M258.39780045 12.13422108 C257.07780045 13.12422108 255.75780045 14.11422108 254.39780045 15.13422108 C254.89536136 17.89063524 254.89536136 17.89063524 256.39780045 20.13422108 C258.89780045 20.30088774 258.89780045 20.30088774 261.39780045 20.13422108 C262.69413665 19.06776993 262.69413665 19.06776993 262.46030045 16.57172108 C262.43967545 15.76734608 262.41905045 14.96297108 262.39780045 14.13422108 C261.07780045 13.47422108 259.75780045 12.81422108 258.39780045 12.13422108 Z " fill="#FFC800" transform="translate(120.60219955444336,168.86577892303467)"/>
<path d="M0 0 C0.97563267 -0.00445784 1.95126533 -0.00891569 2.95646262 -0.01350862 C4.5757833 -0.01323207 4.5757833 -0.01323207 6.22781754 -0.01294994 C7.36868765 -0.01662663 8.50955777 -0.02030332 9.6849997 -0.02409142 C12.86134447 -0.03322932 16.03765887 -0.03783038 19.21401453 -0.04048073 C22.63608385 -0.04437981 26.05813815 -0.05395843 29.48019791 -0.0626936 C37.74939011 -0.08246953 46.01858357 -0.09252577 54.28779352 -0.10142139 C58.1801584 -0.10580255 62.07252191 -0.11116981 65.96488571 -0.11641026 C78.90111763 -0.13342387 91.8373487 -0.14791848 104.77359009 -0.155159 C108.13172532 -0.15706895 111.48986055 -0.15898927 114.84799576 -0.16094494 C116.09999666 -0.16167055 116.09999666 -0.16167055 117.37729052 -0.16241082 C130.90112566 -0.17071273 144.4248724 -0.19605175 157.94866893 -0.22852562 C171.82757531 -0.26158095 185.70643674 -0.27960638 199.5853827 -0.28280324 C207.38020829 -0.28496978 215.17490496 -0.29373944 222.96969223 -0.31926441 C229.60762446 -0.34095065 236.24539648 -0.34903215 242.88336012 -0.33929763 C246.2705628 -0.33474668 249.65716623 -0.33885718 253.04436874 -0.35605907 C256.71647688 -0.37366721 260.38774109 -0.36672544 264.05984879 -0.35352612 C265.66578514 -0.36997998 265.66578514 -0.36997998 267.30416465 -0.38676625 C273.33423644 -0.33429155 276.80724025 0.11341466 281.39780045 4.13422108 C285.82743073 9.16245005 286.70342735 12.01815102 286.60873795 18.59906483 C286.1899992 23.63168424 284.09302537 26.71110124 280.39780045 29.94672108 C276.65557445 32.67542754 274.21012005 33.25884802 269.70658112 33.26844215 C268.73654089 33.2729 267.76650067 33.27735784 266.76706529 33.28195077 C265.16480989 33.28167423 265.16480989 33.28167423 263.5301857 33.2813921 C262.39733383 33.28506879 261.26448196 33.28874547 260.09730124 33.29253358 C256.28112198 33.30359341 252.46496992 33.30741815 248.64877701 33.31122303 C245.92080832 33.31695272 243.19284372 33.32411954 240.46487808 33.33113575 C232.2643228 33.35089879 224.06376629 33.3609659 215.86319315 33.36986354 C212.00184144 33.37424647 208.1404911 33.37961324 204.27914047 33.38485241 C191.44409469 33.40186408 178.60904977 33.41635863 165.77399445 33.42360115 C162.44319279 33.42551106 159.11239114 33.42743139 155.78158951 33.42938709 C154.95373128 33.42987083 154.12587305 33.43035457 153.27292821 33.43085297 C139.8597628 33.43915471 126.44668654 33.4644943 113.03356007 33.49696777 C99.26422839 33.53003201 85.49494203 33.54804931 71.72557044 33.55124539 C63.9938846 33.55341102 56.26232877 33.56216735 48.53068161 33.58770657 C41.94660062 33.60940488 35.36268122 33.61746831 28.77856854 33.60773978 C25.41958707 33.60319246 22.06120963 33.60728364 18.70222855 33.62450123 C15.05898602 33.64213261 11.41659214 33.63515602 7.77334976 33.62196827 C6.71410239 33.63293752 5.65485501 33.64390676 4.56350923 33.65520841 C-1.71721825 33.60024071 -5.48100793 32.84710147 -10.60219955 29.13422108 C-15.19334906 24.1806124 -15.95990689 20.20390069 -15.88344955 13.63812733 C-15.32695225 8.68375552 -12.57926365 5.99496802 -8.97719955 2.82172108 C-5.66843721 0.47075836 -4.00460799 0.00846072 0 0 Z M11.39780045 12.13422108 C10.40780045 12.79422108 9.41780045 13.45422108 8.39780045 14.13422108 C8.06436494 16.67630079 8.06436494 16.67630079 8.39780045 19.13422108 C9.45090321 20.4042543 9.45090321 20.4042543 11.83530045 20.32172108 C14.5651472 20.4026209 14.5651472 20.4026209 16.39780045 18.13422108 C16.3839718 16.07707275 16.3839718 16.07707275 15.39780045 14.13422108 C13.41402375 12.84985374 13.41402375 12.84985374 11.39780045 12.13422108 Z M43.39780045 14.13422108 C43.72780045 15.78422108 44.05780045 17.43422108 44.39780045 19.13422108 C46.79499476 19.8138071 46.79499476 19.8138071 49.39780045 20.13422108 C50.05780045 19.47422108 50.71780045 18.81422108 51.39780045 18.13422108 C51.07738647 15.5314154 51.07738647 15.5314154 50.39780045 13.13422108 C46.91198189 11.93221468 46.717877 11.92083671 43.39780045 14.13422108 Z M79.58530045 13.32172108 C78.14489717 15.08476217 78.14489717 15.08476217 78.71030045 17.32172108 C78.93717545 17.91984608 79.16405045 18.51797108 79.39780045 19.13422108 C81.79499476 19.8138071 81.79499476 19.8138071 84.39780045 20.13422108 C85.05780045 19.47422108 85.71780045 18.81422108 86.39780045 18.13422108 C86.07738647 15.5314154 86.07738647 15.5314154 85.39780045 13.13422108 C82.3903113 11.97559802 82.3903113 11.97559802 79.58530045 13.32172108 Z M187.39780045 12.13422108 C186.40780045 12.79422108 185.41780045 13.45422108 184.39780045 14.13422108 C184.72780045 15.78422108 185.05780045 17.43422108 185.39780045 19.13422108 C187.79499476 19.8138071 187.79499476 19.8138071 190.39780045 20.13422108 C191.05780045 19.47422108 191.71780045 18.81422108 192.39780045 18.13422108 C192.3839718 16.07707275 192.3839718 16.07707275 191.39780045 14.13422108 C189.41402375 12.84985374 189.41402375 12.84985374 187.39780045 12.13422108 Z M220.58530045 13.32172108 C219.14489717 15.08476217 219.14489717 15.08476217 219.71030045 17.32172108 C219.93717545 17.91984608 220.16405045 18.51797108 220.39780045 19.13422108 C222.79499476 19.8138071 222.79499476 19.8138071 225.39780045 20.13422108 C226.05780045 19.47422108 226.71780045 18.81422108 227.39780045 18.13422108 C227.07738647 15.5314154 227.07738647 15.5314154 226.39780045 13.13422108 C223.3903113 11.97559802 223.3903113 11.97559802 220.58530045 13.32172108 Z M257.39780045 12.13422108 C255.75224345 13.36231199 255.75224345 13.36231199 254.39780045 15.13422108 C254.62537776 17.29721319 254.62537776 17.29721319 255.39780045 19.13422108 C258.98107798 20.13639172 258.98107798 20.13639172 262.39780045 19.13422108 C262.39780045 17.48422108 262.39780045 15.83422108 262.39780045 14.13422108 C259.92280045 13.14422108 259.92280045 13.14422108 257.39780045 12.13422108 Z M117.39780045 12.13422108 C116.07780045 13.12422108 114.75780045 14.11422108 113.39780045 15.13422108 C114.05780045 16.78422108 114.71780045 18.43422108 115.39780045 20.13422108 C117.0639195 20.17694208 118.73162929 20.1748594 120.39780045 20.13422108 C121.69413665 19.06776993 121.69413665 19.06776993 121.46030045 16.57172108 C121.43967545 15.76734608 121.41905045 14.96297108 121.39780045 14.13422108 C120.07780045 13.47422108 118.75780045 12.81422108 117.39780045 12.13422108 Z M152.39780045 12.13422108 C151.40780045 12.79422108 150.41780045 13.45422108 149.39780045 14.13422108 C149.06436494 16.67630079 149.06436494 16.67630079 149.39780045 19.13422108 C150.46425159 20.43055728 150.46425159 20.43055728 152.96030045 20.19672108 C153.76467545 20.17609608 154.56905045 20.15547108 155.39780045 20.13422108 C156.05780045 18.48422108 156.71780045 16.83422108 157.39780045 15.13422108 C155.74780045 14.14422108 154.09780045 13.15422108 152.39780045 12.13422108 Z " fill="#FFC800" transform="translate(120.60219955444336,375.86577892303467)"/>
<path d="M0 0 C1.44965825 -0.00967334 1.44965825 -0.00967334 2.92860252 -0.0195421 C4.50942336 -0.01489629 4.50942336 -0.01489629 6.12217999 -0.01015663 C7.24786803 -0.01468774 8.37355608 -0.01921886 9.53335589 -0.02388728 C13.31338687 -0.03656905 17.09327447 -0.03490845 20.87332439 -0.03325844 C23.58026455 -0.03815374 26.28719458 -0.04598954 28.99412823 -0.05361366 C35.58885477 -0.07022158 42.18354556 -0.07572312 48.77829126 -0.07683842 C54.13947434 -0.07778902 59.50064564 -0.08189989 64.86182499 -0.08823967 C80.06492277 -0.1058517 95.26799232 -0.11507863 110.47110037 -0.11357872 C111.29058234 -0.11349881 112.11006432 -0.1134189 112.95437908 -0.11333656 C114.18510461 -0.11321392 114.18510461 -0.11321392 115.44069328 -0.1130888 C128.7366645 -0.11227597 142.03252241 -0.13141309 155.32846085 -0.1596133 C168.9837357 -0.18834688 182.63895531 -0.20215332 196.29426116 -0.20042574 C203.95943085 -0.19976199 211.62448177 -0.20524765 219.28962421 -0.22678185 C225.81617901 -0.24499993 232.34256119 -0.24933593 238.86913041 -0.235763 C242.19786543 -0.22923618 245.52599934 -0.23128153 248.85474682 -0.2464695 C252.46689251 -0.26188316 256.07816853 -0.25263809 259.69029522 -0.23720741 C261.26107782 -0.2526381 261.26107782 -0.2526381 262.8635934 -0.26838052 C269.10611133 -0.20944758 273.90556685 0.63347888 279.09671307 4.25726891 C283.71844538 9.11601314 284.46494676 13.18393724 284.37015057 19.68695641 C283.92301164 23.89006234 282.71568998 25.89960619 280.09671307 29.25726891 C274.05600584 33.70522642 269.02807995 33.82687411 261.67215252 33.76520348 C259.95549751 33.77456342 259.95549751 33.77456342 258.2041626 33.78411245 C254.37256309 33.80005645 250.54159846 33.7874319 246.70999432 33.77484703 C243.96172048 33.77806724 241.21347354 33.78724514 238.46521282 33.79608727 C231.7774638 33.81385947 225.08989449 33.81003836 218.40213847 33.7984367 C212.96613737 33.78939751 207.53018657 33.78818047 202.09418011 33.79253197 C201.32004845 33.7931449 200.54591679 33.79375783 199.7483266 33.79438934 C198.17561744 33.79566826 196.6029083 33.79696511 195.03019917 33.7982797 C180.28820097 33.80968169 165.54630232 33.7965778 150.80432045 33.77507824 C138.15922179 33.75720758 125.51427002 33.7603118 112.869174 33.77875328 C98.17938062 33.80016675 83.48967444 33.80858309 68.79986763 33.79630423 C67.23299378 33.79503005 65.66611991 33.79377257 64.09924603 33.79253197 C63.32834505 33.79191487 62.55744407 33.79129776 61.76318246 33.79066196 C56.33467533 33.78721048 50.90622358 33.79303303 45.47772503 33.80245018 C38.86077579 33.81367685 32.24401632 33.8106162 25.62708879 33.7893272 C22.25189899 33.77882537 18.87728691 33.77683791 15.50205898 33.78792381 C11.84148085 33.79883921 8.18179477 33.78516222 4.52127361 33.76520348 C3.45697282 33.77412636 2.39267202 33.78304925 1.29611969 33.79224253 C-4.98328224 33.72574274 -8.80383917 33.01214828 -13.90328693 29.25726891 C-17.66873032 24.42977738 -18.50094345 20.71287362 -18.22359943 14.62055016 C-17.59244343 9.96385034 -15.89747008 7.19912662 -12.52828693 4.00726891 C-8.41290953 1.26368397 -4.94868181 0.00837786 0 0 Z M8.09671307 13.25726891 C7.43671307 13.91726891 6.77671307 14.57726891 6.09671307 15.25726891 C6.41712704 17.86007459 6.41712704 17.86007459 7.09671307 20.25726891 C8.93372096 21.0296916 8.93372096 21.0296916 11.09671307 21.25726891 C13.01337973 20.17393557 13.01337973 20.17393557 14.09671307 18.25726891 C13.86913576 16.0942768 13.86913576 16.0942768 13.09671307 14.25726891 C10.69951875 13.57768288 10.69951875 13.57768288 8.09671307 13.25726891 Z M43.09671307 13.25726891 C42.43671307 13.91726891 41.77671307 14.57726891 41.09671307 15.25726891 C41.41712704 17.86007459 41.41712704 17.86007459 42.09671307 20.25726891 C43.94396359 20.94886292 43.94396359 20.94886292 46.09671307 21.25726891 C47.08671307 20.59726891 48.07671307 19.93726891 49.09671307 19.25726891 C48.76671307 17.60726891 48.43671307 15.95726891 48.09671307 14.25726891 C45.69951875 13.57768288 45.69951875 13.57768288 43.09671307 13.25726891 Z M78.09671307 13.25726891 C77.43671307 13.91726891 76.77671307 14.57726891 76.09671307 15.25726891 C76.41712704 17.86007459 76.41712704 17.86007459 77.09671307 20.25726891 C78.94396359 20.94886292 78.94396359 20.94886292 81.09671307 21.25726891 C82.08671307 20.59726891 83.07671307 19.93726891 84.09671307 19.25726891 C83.76671307 17.60726891 83.43671307 15.95726891 83.09671307 14.25726891 C80.69951875 13.57768288 80.69951875 13.57768288 78.09671307 13.25726891 Z M113.09671307 13.25726891 C112.43671307 14.90726891 111.77671307 16.55726891 111.09671307 18.25726891 C112.32480398 19.9028259 112.32480398 19.9028259 114.09671307 21.25726891 C116.23417228 21.00580312 117.55597086 20.79801111 119.09671307 19.25726891 C119.13735139 17.59109775 119.13943407 15.92338796 119.09671307 14.25726891 C116.12671307 13.76226891 116.12671307 13.76226891 113.09671307 13.25726891 Z M147.09671307 14.25726891 C146.92983859 16.67372672 146.92983859 16.67372672 147.09671307 19.25726891 C147.75671307 19.91726891 148.41671307 20.57726891 149.09671307 21.25726891 C151.15386139 21.24344026 151.15386139 21.24344026 153.09671307 20.25726891 C154.38108041 18.27349221 154.38108041 18.27349221 155.09671307 16.25726891 C154.43671307 15.26726891 153.77671307 14.27726891 153.09671307 13.25726891 C149.32031986 12.95912651 149.32031986 12.95912651 147.09671307 14.25726891 Z M184.09671307 13.25726891 C183.43671307 13.91726891 182.77671307 14.57726891 182.09671307 15.25726891 C182.41712704 17.86007459 182.41712704 17.86007459 183.09671307 20.25726891 C184.93372096 21.0296916 184.93372096 21.0296916 187.09671307 21.25726891 C189.01337973 20.17393557 189.01337973 20.17393557 190.09671307 18.25726891 C189.86913576 16.0942768 189.86913576 16.0942768 189.09671307 14.25726891 C186.69951875 13.57768288 186.69951875 13.57768288 184.09671307 13.25726891 Z M219.09671307 13.25726891 C218.43671307 13.91726891 217.77671307 14.57726891 217.09671307 15.25726891 C217.41712704 17.86007459 217.41712704 17.86007459 218.09671307 20.25726891 C219.94396359 20.94886292 219.94396359 20.94886292 222.09671307 21.25726891 C223.08671307 20.59726891 224.07671307 19.93726891 225.09671307 19.25726891 C224.76671307 17.60726891 224.43671307 15.95726891 224.09671307 14.25726891 C221.69951875 13.57768288 221.69951875 13.57768288 219.09671307 13.25726891 Z M254.09671307 13.25726891 C253.43671307 13.91726891 252.77671307 14.57726891 252.09671307 15.25726891 C252.41712704 17.86007459 252.41712704 17.86007459 253.09671307 20.25726891 C254.94396359 20.94886292 254.94396359 20.94886292 257.09671307 21.25726891 C258.08671307 20.59726891 259.07671307 19.93726891 260.09671307 19.25726891 C259.76671307 17.60726891 259.43671307 15.95726891 259.09671307 14.25726891 C256.69951875 13.57768288 256.69951875 13.57768288 254.09671307 13.25726891 Z " fill="#FFC800" transform="translate(122.90328693389893,478.74273109436035)"/>
<path d="M0 0 C1.1861087 -0.01270432 1.1861087 -0.01270432 2.3961792 -0.02566528 C5.00793584 -0.04904754 7.61910367 -0.05005708 10.23095703 -0.04882812 C12.04932897 -0.05592961 13.86769867 -0.06362859 15.68606567 -0.07189941 C19.49747953 -0.08534749 23.30868625 -0.08691182 27.12011719 -0.08105469 C31.99841208 -0.07516205 36.87571056 -0.10573022 41.75381279 -0.14617157 C45.50970796 -0.1720554 49.26536354 -0.1749253 53.0213356 -0.17127991 C54.81944404 -0.17297091 56.61756356 -0.18261156 58.41558456 -0.20042419 C60.93397886 -0.22262552 63.45036106 -0.21290731 65.96875 -0.1953125 C66.70765472 -0.20857574 67.44655945 -0.22183899 68.20785522 -0.23550415 C73.9350632 -0.14279395 76.22029223 1.52953394 80.11376953 5.41992188 C82.81018087 8.97428228 82.618404 13.1346652 82.11376953 17.41992188 C80.76067687 21.81747301 79.14018678 23.68378532 75.17626953 25.79492188 C72.0652881 27.26949111 70.74789185 27.41992188 67.11376953 27.41992188 C67.11376953 37.31992187 67.11376953 47.21992187 67.11376953 57.41992188 C44.67376953 57.41992188 22.23376953 57.41992188 -0.88623047 57.41992188 C-0.88623047 47.51992188 -0.88623047 37.61992188 -0.88623047 27.41992188 C-3.19623047 27.08992188 -5.50623047 26.75992187 -7.88623047 26.41992188 C-10.92126279 24.76389004 -13.17013372 22.36386759 -15.26123047 19.60742188 C-16.7326583 14.45742445 -16.59342873 10.75854716 -14.13623047 6.10742188 C-9.76312566 0.88399113 -6.73790121 -0.02657787 0 0 Z " fill="#FFC800" transform="translate(139.88623046875,-0.419921875)"/>
<path d="M0 0 C19.8 0 39.6 0 60 0 C60 17.82 60 35.64 60 54 C40.2 54 20.4 54 0 54 C0 36.18 0 18.36 0 0 Z " fill="#FFC800" transform="translate(226,417)"/>
<path d="M0 0 C19.8 0 39.6 0 60 0 C60 17.82 60 35.64 60 54 C40.2 54 20.4 54 0 54 C0 36.18 0 18.36 0 0 Z " fill="#FFC800" transform="translate(226,314)"/>
<path d="M0 0 C19.8 0 39.6 0 60 0 C60 17.82 60 35.64 60 54 C40.2 54 20.4 54 0 54 C0 36.18 0 18.36 0 0 Z " fill="#FFC800" transform="translate(226,210)"/>
<path d="M0 0 C19.8 0 39.6 0 60 0 C60 17.82 60 35.64 60 54 C40.2 54 20.4 54 0 54 C0 36.18 0 18.36 0 0 Z " fill="#FFC800" transform="translate(226,107)"/>
<path d="M0 0 C0 18.48 0 36.96 0 56 C-18.48 55.67 -36.96 55.34 -56 55 C-56 37.18 -56 19.36 -56 1 C-47.688125 0.835 -39.37625 0.67 -30.8125 0.5 C-28.19546143 0.44779297 -25.57842285 0.39558594 -22.88208008 0.34179688 C-20.80289791 0.30074221 -18.72371501 0.2597241 -16.64453125 0.21875 C-15.03112854 0.1863623 -15.03112854 0.1863623 -13.38513184 0.15332031 C-12.35029663 0.13301758 -11.31546143 0.11271484 -10.24926758 0.09179688 C-9.35436111 0.07403198 -8.45945465 0.05626709 -7.53742981 0.03796387 C-5.0252025 0.00037707 -2.51250847 0 0 0 Z " fill="#FFC800" transform="translate(396,313)"/>
<path d="M0 0 C0 18.48 0 36.96 0 56 C-18.48 55.67 -36.96 55.34 -56 55 C-56 37.18 -56 19.36 -56 1 C-47.13125 0.835 -38.2625 0.67 -29.125 0.5 C-26.32402832 0.44779297 -23.52305664 0.39558594 -20.63720703 0.34179688 C-18.42740913 0.30076656 -16.21761097 0.25974999 -14.0078125 0.21875 C-12.8520874 0.1971582 -11.6963623 0.17556641 -10.50561523 0.15332031 C-8.8614563 0.12286621 -8.8614563 0.12286621 -7.18408203 0.09179688 C-6.22921906 0.07403198 -5.27435608 0.05626709 -4.29055786 0.03796387 C-2.86051233 0.01426219 -1.43024194 0 0 0 Z " fill="#FFC800" transform="translate(396,416)"/>
<path d="M0 0 C18.48 0.33 36.96 0.66 56 1 C56 18.82 56 36.64 56 55 C37.52 55.33 19.04 55.66 0 56 C0 37.52 0 19.04 0 0 Z " fill="#FFC800" transform="translate(116,416)"/>
<path d="M0 0 C18.48 0.33 36.96 0.66 56 1 C56 18.82 56 36.64 56 55 C37.52 55 19.04 55 0 55 C0 36.85 0 18.7 0 0 Z " fill="#FFC800" transform="translate(116,313)"/>
<path d="M0 0 C0 18.48 0 36.96 0 56 C-18.48 55.67 -36.96 55.34 -56 55 C-56 37.18 -56 19.36 -56 1 C-47.13125 0.835 -38.2625 0.67 -29.125 0.5 C-26.32402832 0.44779297 -23.52305664 0.39558594 -20.63720703 0.34179688 C-18.42740913 0.30076656 -16.21761097 0.25974999 -14.0078125 0.21875 C-12.8520874 0.1971582 -11.6963623 0.17556641 -10.50561523 0.15332031 C-8.8614563 0.12286621 -8.8614563 0.12286621 -7.18408203 0.09179688 C-6.22921906 0.07403198 -5.27435608 0.05626709 -4.29055786 0.03796387 C-2.86051233 0.01426219 -1.43024194 0 0 0 Z " fill="#FFC800" transform="translate(396,209)"/>
<path d="M0 0 C18.48 0.33 36.96 0.66 56 1 C56 18.82 56 36.64 56 55 C37.52 55.33 19.04 55.66 0 56 C0 37.52 0 19.04 0 0 Z " fill="#FFC800" transform="translate(116,209)"/>
<path d="M0 0 C0 18.48 0 36.96 0 56 C-18.48 55.67 -36.96 55.34 -56 55 C-56 37.18 -56 19.36 -56 1 C-47.5025 0.835 -39.005 0.67 -30.25 0.5 C-27.57165039 0.44779297 -24.89330078 0.39558594 -22.13378906 0.34179688 C-20.0110683 0.30075066 -17.88834698 0.25973308 -15.765625 0.21875 C-14.66331543 0.1971582 -13.56100586 0.17556641 -12.42529297 0.15332031 C-10.84240479 0.12286621 -10.84240479 0.12286621 -9.22753906 0.09179688 C-7.85520111 0.06514954 -7.85520111 0.06514954 -6.45513916 0.03796387 C-4.3036461 0.00469529 -2.15175027 0 0 0 Z " fill="#FFC800" transform="translate(396,106)"/>
<path d="M0 0 C18.48 0.33 36.96 0.66 56 1 C56 18.82 56 36.64 56 55 C37.52 55.33 19.04 55.66 0 56 C0 37.52 0 19.04 0 0 Z " fill="#FFC800" transform="translate(116,106)"/>
<path d="M0 0 C12.87 0 25.74 0 39 0 C39 17.82 39 35.64 39 54 C26.13 54 13.26 54 0 54 C0 36.18 0 18.36 0 0 Z " fill="#FFC800" transform="translate(293,417)"/>
<path d="M0 0 C12.87 0 25.74 0 39 0 C39 17.82 39 35.64 39 54 C26.13 54 13.26 54 0 54 C0 36.18 0 18.36 0 0 Z " fill="#FFC800" transform="translate(293,314)"/>
<path d="M0 0 C12.87 0 25.74 0 39 0 C39 17.82 39 35.64 39 54 C26.13 54 13.26 54 0 54 C0 36.18 0 18.36 0 0 Z " fill="#FFC800" transform="translate(293,210)"/>
<path d="M0 0 C12.87 0 25.74 0 39 0 C39 17.82 39 35.64 39 54 C26.13 54 13.26 54 0 54 C0 36.18 0 18.36 0 0 Z " fill="#FFC800" transform="translate(293,107)"/>
<path d="M0 0 C9.3740625 -0.0309375 9.3740625 -0.0309375 18.9375 -0.0625 C20.91226318 -0.071604 22.88702637 -0.08070801 24.92163086 -0.09008789 C26.47770113 -0.09300705 28.03377216 -0.09555561 29.58984375 -0.09765625 C30.81290222 -0.1053302 30.81290222 -0.1053302 32.06066895 -0.11315918 C34.04080523 -0.1134694 36.02084654 -0.06238096 38 0 C39.65408456 1.65408456 39.12742355 3.59553892 39.12939453 5.87109375 C39.13254669 6.90886963 39.13569885 7.94664551 39.13894653 9.01586914 C39.1369223 10.14500732 39.13489807 11.27414551 39.1328125 12.4375 C39.13376923 13.58790771 39.13472595 14.73831543 39.13571167 15.92358398 C39.13639369 18.36149144 39.1345379 20.7994007 39.13037109 23.23730469 C39.12502317 26.98376518 39.13031539 30.73010577 39.13671875 34.4765625 C39.13605797 36.83854193 39.13477682 39.20052129 39.1328125 41.5625 C39.13483673 42.69163818 39.13686096 43.82077637 39.13894653 44.98413086 C39.13421829 46.54079468 39.13421829 46.54079468 39.12939453 48.12890625 C39.12859894 49.04744385 39.12780334 49.96598145 39.12698364 50.91235352 C39 53 39 53 38 54 C35.18859849 54.0886126 32.40120576 54.11529584 29.58984375 54.09765625 C28.84383911 54.09664917 28.09783447 54.09564209 27.32922363 54.09460449 C24.53196687 54.08935689 21.73473196 54.07539573 18.9375 54.0625 C12.688125 54.041875 6.43875 54.02125 0 54 C0 36.18 0 18.36 0 0 Z " fill="#FFC800" transform="translate(180,417)"/>
<path d="M0 0 C9.3740625 -0.0309375 9.3740625 -0.0309375 18.9375 -0.0625 C20.91226318 -0.071604 22.88702637 -0.08070801 24.92163086 -0.09008789 C26.47770113 -0.09300705 28.03377216 -0.09555561 29.58984375 -0.09765625 C30.81290222 -0.1053302 30.81290222 -0.1053302 32.06066895 -0.11315918 C34.04080523 -0.1134694 36.02084654 -0.06238096 38 0 C39.65408456 1.65408456 39.12742355 3.59553892 39.12939453 5.87109375 C39.13254669 6.90886963 39.13569885 7.94664551 39.13894653 9.01586914 C39.1369223 10.14500732 39.13489807 11.27414551 39.1328125 12.4375 C39.13376923 13.58790771 39.13472595 14.73831543 39.13571167 15.92358398 C39.13639369 18.36149144 39.1345379 20.7994007 39.13037109 23.23730469 C39.12502317 26.98376518 39.13031539 30.73010577 39.13671875 34.4765625 C39.13605797 36.83854193 39.13477682 39.20052129 39.1328125 41.5625 C39.13483673 42.69163818 39.13686096 43.82077637 39.13894653 44.98413086 C39.13421829 46.54079468 39.13421829 46.54079468 39.12939453 48.12890625 C39.12859894 49.04744385 39.12780334 49.96598145 39.12698364 50.91235352 C39 53 39 53 38 54 C35.18859849 54.0886126 32.40120576 54.11529584 29.58984375 54.09765625 C28.84383911 54.09664917 28.09783447 54.09564209 27.32922363 54.09460449 C24.53196687 54.08935689 21.73473196 54.07539573 18.9375 54.0625 C12.688125 54.041875 6.43875 54.02125 0 54 C0 36.18 0 18.36 0 0 Z " fill="#FFC800" transform="translate(180,314)"/>
<path d="M0 0 C9.3740625 -0.0309375 9.3740625 -0.0309375 18.9375 -0.0625 C20.91226318 -0.071604 22.88702637 -0.08070801 24.92163086 -0.09008789 C26.47770113 -0.09300705 28.03377216 -0.09555561 29.58984375 -0.09765625 C30.81290222 -0.1053302 30.81290222 -0.1053302 32.06066895 -0.11315918 C34.04080523 -0.1134694 36.02084654 -0.06238096 38 0 C39.65408456 1.65408456 39.12742355 3.59553892 39.12939453 5.87109375 C39.13254669 6.90886963 39.13569885 7.94664551 39.13894653 9.01586914 C39.1369223 10.14500732 39.13489807 11.27414551 39.1328125 12.4375 C39.13376923 13.58790771 39.13472595 14.73831543 39.13571167 15.92358398 C39.13639369 18.36149144 39.1345379 20.7994007 39.13037109 23.23730469 C39.12502317 26.98376518 39.13031539 30.73010577 39.13671875 34.4765625 C39.13605797 36.83854193 39.13477682 39.20052129 39.1328125 41.5625 C39.13483673 42.69163818 39.13686096 43.82077637 39.13894653 44.98413086 C39.13421829 46.54079468 39.13421829 46.54079468 39.12939453 48.12890625 C39.12859894 49.04744385 39.12780334 49.96598145 39.12698364 50.91235352 C39 53 39 53 38 54 C35.18859849 54.0886126 32.40120576 54.11529584 29.58984375 54.09765625 C28.84383911 54.09664917 28.09783447 54.09564209 27.32922363 54.09460449 C24.53196687 54.08935689 21.73473196 54.07539573 18.9375 54.0625 C12.688125 54.041875 6.43875 54.02125 0 54 C0 36.18 0 18.36 0 0 Z " fill="#FFC800" transform="translate(180,210)"/>
<path d="M0 0 C9.3740625 -0.0309375 9.3740625 -0.0309375 18.9375 -0.0625 C20.91226318 -0.071604 22.88702637 -0.08070801 24.92163086 -0.09008789 C26.47770113 -0.09300705 28.03377216 -0.09555561 29.58984375 -0.09765625 C30.81290222 -0.1053302 30.81290222 -0.1053302 32.06066895 -0.11315918 C34.04080523 -0.1134694 36.02084654 -0.06238096 38 0 C39.65408456 1.65408456 39.12742355 3.59553892 39.12939453 5.87109375 C39.13254669 6.90886963 39.13569885 7.94664551 39.13894653 9.01586914 C39.1369223 10.14500732 39.13489807 11.27414551 39.1328125 12.4375 C39.13376923 13.58790771 39.13472595 14.73831543 39.13571167 15.92358398 C39.13639369 18.36149144 39.1345379 20.7994007 39.13037109 23.23730469 C39.12502317 26.98376518 39.13031539 30.73010577 39.13671875 34.4765625 C39.13605797 36.83854193 39.13477682 39.20052129 39.1328125 41.5625 C39.13483673 42.69163818 39.13686096 43.82077637 39.13894653 44.98413086 C39.13421829 46.54079468 39.13421829 46.54079468 39.12939453 48.12890625 C39.12859894 49.04744385 39.12780334 49.96598145 39.12698364 50.91235352 C39 53 39 53 38 54 C35.18859849 54.0886126 32.40120576 54.11529584 29.58984375 54.09765625 C28.84383911 54.09664917 28.09783447 54.09564209 27.32922363 54.09460449 C24.53196687 54.08935689 21.73473196 54.07539573 18.9375 54.0625 C12.688125 54.041875 6.43875 54.02125 0 54 C0 36.18 0 18.36 0 0 Z " fill="#FFC800" transform="translate(180,107)"/>
</svg>
