<?xml version="1.0" standalone="no"?>
<!DOCTYPE svg PUBLIC "-//W3C//DTD SVG 20010904//EN"
 "http://www.w3.org/TR/2001/REC-SVG-20010904/DTD/svg10.dtd">
<svg version="1.0" xmlns="http://www.w3.org/2000/svg"
 width="512.000000pt" height="512.000000pt" viewBox="0 0 512.000000 512.000000"
 preserveAspectRatio="xMidYMid meet">

<g transform="translate(0.000000,512.000000) scale(0.100000,-0.100000)"
fill="#FFC800" stroke="none">
<path d="M2400 4962 c-639 -898 -1248 -1957 -1546 -2692 -146 -362 -244 -736
-244 -935 l0 -45 945 0 c747 0 947 3 950 13 3 6 4 866 3 1909 l-3 1897 -105
-147z"/>
<path d="M2610 3382 c0 -274 -3 -857 -7 -1295 l-6 -797 956 0 957 0 0 29 c0
16 -6 63 -14 104 -74 385 -438 976 -990 1607 -137 157 -465 489 -611 619 -136
121 -268 231 -278 231 -4 0 -7 -224 -7 -498z"/>
<path d="M195 1018 c16 -18 224 -255 464 -526 l436 -492 1405 0 1405 0 525
525 525 525 -2393 0 -2394 0 27 -32z m1614 -301 c120 -61 149 -230 58 -334
-131 -150 -377 -56 -377 143 0 103 55 178 152 210 53 17 109 10 167 -19z m853
2 c75 -38 127 -135 115 -219 -7 -57 -51 -126 -99 -158 -36 -24 -51 -27 -119
-27 -70 0 -82 3 -121 30 -50 35 -98 120 -98 173 0 170 172 277 322 201z m858
-2 c68 -35 104 -92 108 -176 3 -54 0 -76 -16 -107 -107 -208 -411 -139 -412
94 0 66 18 109 64 155 67 67 164 80 256 34z"/>
</g>
</svg>
