<svg width="132" height="25" fill="none" xmlns="http://www.w3.org/2000/svg"><path d="M10.687 5.344s1.12-1.839 3.66-1.839h16.707l-2.242 5.696s-2.008 1.959-4.074 1.959H8.384l2.303-5.816zM0 14.422h26.627c5.667-.064 8.796-4.924 8.796-4.924L39.084.182H12.575C6.908.182 3.72 5.107 3.72 5.107L2.243 8.786S0 14.363 0 14.422zM135.025.152h-8.916l-9.801 4.39-5.785-4.39H99.364l9.151 7.358-14.818 6.943h8.914l9.565-4.274 5.785 4.274h12.576l-10.332-7.714 14.82-6.587z" fill="#000"/><path fill-rule="evenodd" clip-rule="evenodd" d="M48.413.008h-3.011c-1.004 2.254-2.48 5.4-2.48 5.4l-3.838 9.196h6.73l4.193-10.68 15.645 10.68h7.025l5.67-14.24h-7.028l-1.297 3.204-.064.116-2.952 7.477L51.833.065h.064S48.237 0 48.414 0l-.001.008z" fill="#000"/><path fill-rule="evenodd" clip-rule="evenodd" d="M95.703.149v.064l-6.021 14.242h-6.967l5.668-14.3 7.32-.006z" fill="#FFC800"/></svg>