<?xml version="1.0" standalone="no"?>
<!DOCTYPE svg PUBLIC "-//W3C//DTD SVG 20010904//EN"
 "http://www.w3.org/TR/2001/REC-SVG-20010904/DTD/svg10.dtd">
<svg version="1.0" xmlns="http://www.w3.org/2000/svg"
 width="512.000000pt" height="512.000000pt" viewBox="0 0 512.000000 512.000000"
 preserveAspectRatio="xMidYMid meet">

<g transform="translate(0.000000,512.000000) scale(0.100000,-0.100000)"
fill="#FFC800" stroke="none">
<path d="M2432 4919 c-68 -33 -189 -142 -285 -254 -53 -62 -70 -74 -144 -107
-187 -81 -291 -185 -344 -345 -27 -81 -24 -226 5 -283 11 -19 72 -106 137
-192 66 -86 119 -160 119 -165 0 -4 -39 -16 -87 -25 -105 -20 -212 -71 -273
-130 -26 -25 -356 -501 -796 -1148 -412 -608 -753 -1110 -756 -1116 -6 -9 619
-378 638 -377 4 1 193 282 420 624 l414 624 0 -70 c0 -55 39 -1772 40 -1782 0
-2 223 -3 495 -3 l495 0 0 1488 0 1487 -186 185 c-159 159 -211 218 -360 416
-195 260 -207 284 -186 380 17 84 50 143 109 200 257 248 1020 262 1321 25 61
-49 106 -118 128 -199 32 -113 22 -136 -168 -389 -135 -182 -196 -252 -360
-419 l-198 -200 0 -1487 0 -1487 495 0 c272 0 495 1 495 3 1 9 40 1736 40
1787 l0 65 415 -625 c228 -344 419 -624 425 -623 5 2 152 85 325 185 300 174
314 183 301 203 -242 368 -1501 2205 -1537 2243 -65 66 -166 117 -284 142 -50
10 -91 19 -93 19 -3 1 154 210 212 281 132 164 89 432 -95 593 -54 47 -172
114 -239 136 -23 7 -52 31 -85 72 -87 106 -228 234 -296 268 -88 44 -170 44
-257 0z m-182 -2174 l0 -525 -45 0 -45 0 0 525 0 525 45 0 45 0 0 -525z m710
0 l0 -525 -45 0 -45 0 0 525 0 525 45 0 45 0 0 -525z m-630 -1500 l0 -45 -270
0 -270 0 0 45 0 45 270 0 270 0 0 -45z m1000 0 l0 -45 -270 0 -270 0 0 45 0
45 270 0 270 0 0 -45z"/>
</g>
</svg>
