<?xml version="1.0" standalone="no"?>
<!DOCTYPE svg PUBLIC "-//W3C//DTD SVG 20010904//EN"
 "http://www.w3.org/TR/2001/REC-SVG-20010904/DTD/svg10.dtd">
<svg version="1.0" xmlns="http://www.w3.org/2000/svg"
 width="512.000000pt" height="512.000000pt" viewBox="0 0 512.000000 512.000000"
 preserveAspectRatio="xMidYMid meet">

<g transform="translate(0.000000,512.000000) scale(0.100000,-0.100000)"
fill="#FFC800" stroke="none">
<path d="M2680 5110 c-164 -23 -325 -72 -464 -142 -336 -169 -601 -474 -720
-828 -47 -142 -87 -400 -62 -400 6 0 33 7 60 15 69 21 208 19 273 -4 l53 -18
5 36 c42 288 124 467 295 640 140 141 293 230 479 277 579 149 1162 -231 1266
-825 22 -125 22 -2477 0 -2602 -104 -594 -686 -973 -1266 -825 -186 47 -339
136 -479 277 -171 173 -253 352 -295 640 l-5 36 -53 -18 c-65 -23 -204 -25
-273 -4 -27 8 -54 15 -60 15 -25 0 15 -258 62 -400 119 -354 384 -659 720
-828 105 -53 233 -97 357 -124 136 -29 407 -31 540 -5 582 117 1025 560 1144
1144 17 82 18 180 18 1393 0 1213 -1 1311 -18 1393 -118 582 -565 1030 -1139
1142 -98 19 -346 28 -438 15z"/>
<path d="M1495 3662 c-102 -36 -193 -119 -236 -216 -22 -50 -47 -231 -36 -260
6 -14 47 -16 402 -16 l395 0 0 84 c0 185 -82 321 -237 394 -76 35 -211 42
-288 14z"/>
<path d="M999 3066 c-130 -46 -193 -189 -139 -314 26 -60 86 -117 140 -133 23
-6 245 -9 641 -7 l606 3 48 30 c95 59 134 186 90 293 -21 52 -90 114 -143 130
-59 18 -1193 16 -1243 -2z"/>
<path d="M984 2496 c-51 -23 -100 -73 -124 -128 -46 -107 -6 -231 94 -293 l49
-30 601 -3 c665 -3 648 -4 724 62 113 99 96 291 -33 371 l-48 30 -616 2 c-500
2 -622 0 -647 -11z"/>
<path d="M1223 1934 c-3 -9 -1 -61 5 -116 13 -122 44 -191 116 -264 28 -27 78
-63 111 -80 55 -26 69 -29 165 -29 94 0 111 3 163 27 155 73 237 209 237 394
l0 84 -395 0 c-355 0 -396 -2 -402 -16z"/>
</g>
</svg>
