<?xml version="1.0" standalone="no"?>
<!DOCTYPE svg PUBLIC "-//W3C//DTD SVG 20010904//EN"
 "http://www.w3.org/TR/2001/REC-SVG-20010904/DTD/svg10.dtd">
<svg version="1.0" xmlns="http://www.w3.org/2000/svg"
 width="512.000000pt" height="512.000000pt" viewBox="0 0 512.000000 512.000000"
 preserveAspectRatio="xMidYMid meet">

<g transform="translate(0.000000,512.000000) scale(0.100000,-0.100000)"
fill="#FFC800" stroke="none">
<path d="M2256 5104 c-339 -53 -549 -205 -597 -432 -17 -83 -7 -243 20 -313
33 -87 96 -176 181 -259 129 -124 195 -229 240 -380 13 -41 24 -76 25 -78 2
-2 41 8 87 23 294 93 614 63 890 -82 49 -26 90 -45 92 -42 3 2 34 51 70 109
75 120 132 245 172 375 25 82 28 104 28 245 0 141 -3 163 -28 245 -84 275
-258 446 -554 545 -171 57 -428 75 -626 44z"/>
<path d="M2420 3620 c-230 -32 -448 -141 -614 -307 -139 -139 -230 -299 -283
-502 -22 -83 -26 -117 -26 -251 0 -134 4 -168 26 -251 53 -203 141 -357 282
-500 140 -142 300 -232 504 -286 83 -22 117 -26 251 -26 134 0 168 4 251 26
203 53 363 144 502 283 140 141 231 300 284 503 22 83 26 117 26 251 0 134 -4
168 -26 251 -53 203 -144 362 -284 503 -191 192 -441 301 -713 311 -63 2 -144
0 -180 -5z m312 -510 c181 -56 328 -208 384 -395 24 -81 24 -229 0 -310 -29
-97 -76 -175 -151 -250 -117 -117 -241 -169 -405 -169 -155 0 -277 48 -393
154 -197 181 -240 484 -102 715 86 143 235 245 398 275 71 12 194 3 269 -20z"/>
<path d="M680 3455 c-367 -76 -603 -347 -664 -766 -53 -355 25 -712 195 -893
104 -112 215 -152 394 -144 162 8 278 66 415 208 124 129 229 195 380 240 41
13 76 24 78 25 2 2 -8 41 -23 87 -93 295 -64 614 83 891 28 54 42 91 36 95
-265 181 -510 273 -723 271 -58 0 -135 -7 -171 -14z"/>
<path d="M4401 3454 c-30 -8 -80 -28 -112 -45 -62 -33 -189 -133 -189 -149 0
-5 -34 -38 -76 -74 -87 -74 -197 -135 -304 -166 -41 -13 -76 -24 -78 -25 -2
-2 8 -41 23 -87 93 -294 63 -614 -82 -890 -26 -49 -45 -90 -42 -92 2 -3 51
-34 109 -70 120 -75 245 -132 375 -172 82 -25 104 -28 245 -28 141 0 163 3
245 28 330 101 531 356 589 749 53 351 -26 711 -193 890 -100 106 -203 148
-366 146 -49 0 -114 -7 -144 -15z"/>
<path d="M1864 1483 c-210 -337 -263 -617 -172 -903 98 -308 360 -508 741
-564 350 -53 711 26 889 193 114 106 154 216 146 396 -8 162 -66 278 -208 415
-129 124 -195 229 -240 380 -13 41 -24 76 -25 78 -2 2 -41 -8 -87 -23 -293
-93 -616 -63 -887 81 -46 24 -86 44 -90 44 -4 0 -34 -44 -67 -97z"/>
</g>
</svg>
