<?xml version="1.0" standalone="no"?>
<!DOCTYPE svg PUBLIC "-//W3C//DTD SVG 20010904//EN"
 "http://www.w3.org/TR/2001/REC-SVG-20010904/DTD/svg10.dtd">
<svg version="1.0" xmlns="http://www.w3.org/2000/svg"
 width="512.000000pt" height="512.000000pt" viewBox="0 0 512.000000 512.000000"
 preserveAspectRatio="xMidYMid meet">

<g transform="translate(0.000000,512.000000) scale(0.100000,-0.100000)"
fill="#FFC800" stroke="none">
<path d="M2490 4778 c-41 -21 -106 -107 -702 -927 -445 -612 -660 -915 -664
-938 -14 -75 26 -151 93 -179 26 -11 144 -14 608 -14 l575 0 0 -160 0 -160
-829 -2 c-820 -3 -830 -3 -857 -24 -15 -11 -36 -32 -47 -45 -40 -55 -36 -78
91 -524 66 -231 124 -432 127 -448 l7 -27 -93 34 c-52 19 -162 59 -245 90 -84
30 -170 58 -193 62 l-41 7 0 -162 c0 -145 2 -162 17 -168 10 -3 108 -41 218
-83 319 -124 426 -150 629 -150 219 0 389 42 765 190 288 112 342 125 536 124
189 0 253 -15 521 -122 355 -142 500 -180 720 -189 238 -10 351 16 729 167
121 48 240 93 265 100 25 6 53 13 63 16 15 5 17 22 17 165 l0 159 -26 0 c-48
0 -144 -30 -368 -116 -121 -46 -231 -89 -244 -94 -44 -19 -44 -10 2 41 154
172 266 416 302 660 27 190 15 258 -60 313 -27 21 -37 21 -857 24 l-829 2 0
1136 c0 1111 0 1136 -20 1174 -42 81 -129 110 -210 68z"/>
<path d="M2975 4786 c-65 -28 -105 -107 -91 -176 3 -16 32 -74 64 -127 326
-540 330 -961 14 -1433 -73 -110 -77 -118 -77 -172 0 -61 17 -94 69 -132 27
-21 36 -21 726 -21 690 0 699 0 726 21 65 48 69 61 68 227 -4 599 -211 1119
-568 1429 -198 172 -442 296 -721 368 -128 33 -165 36 -210 16z"/>
<path d="M2275 785 c-129 -20 -225 -50 -492 -156 -330 -130 -384 -143 -583
-143 -191 0 -256 14 -501 112 -197 79 -323 122 -356 122 -23 0 -23 0 -23 -160
0 -144 2 -161 18 -167 9 -3 108 -41 218 -84 294 -115 441 -149 644 -149 214 0
344 32 707 174 333 129 381 141 578 140 194 0 251 -15 579 -144 347 -137 483
-170 696 -170 211 0 354 35 693 169 140 56 258 101 263 101 5 0 26 5 47 11
l37 10 0 159 0 160 -29 0 c-51 0 -200 -49 -456 -150 -312 -123 -364 -135 -560
-134 -193 0 -250 14 -567 139 -276 109 -373 140 -508 160 -114 18 -295 18
-405 0z"/>
</g>
</svg>
