<?xml version="1.0" encoding="UTF-8"?>
<svg version="1.1" xmlns="http://www.w3.org/2000/svg" width="512" height="512">
<path d="M0 0 C0.74439331 0.06316406 1.48878662 0.12632812 2.2557373 0.19140625 C145.09304231 12.32688867 145.09304231 12.32688867 188.83203125 53.734375 C190.61228055 57.18770139 189.81005229 60.34153814 189 64 C187.82782931 67.45211501 186.38209823 70.76187537 184.90625 74.09375 C184.48784851 75.06107559 184.06944702 76.02840118 183.6383667 77.02503967 C182.26821519 80.18749298 180.88402695 83.34359786 179.5 86.5 C178.53889079 88.71296194 177.57894296 90.92642861 176.62011719 93.14038086 C174.67560709 97.62891144 172.72693134 102.11559635 170.77539062 106.60107422 C166.88056082 115.56577114 163.06326485 124.56288939 159.25 133.5625 C150.83969031 153.37769934 142.41975482 173.18881218 134 193 C2 193 -130 193 -266 193 C-276.669058 168.10553132 -287.32902133 143.20958904 -297.9095459 118.27770996 C-300.50283789 112.16756747 -303.1023324 106.06007796 -305.703125 99.953125 C-306.86481241 97.22417399 -308.02640371 94.49518209 -309.18795776 91.76617432 C-309.92711587 90.03013867 -310.66662767 88.29425357 -311.40652466 86.55853271 C-313.34868421 82.00211427 -315.28407072 77.44299429 -317.20611572 72.87805176 C-317.91854485 71.19269432 -318.64100449 69.51158527 -319.36474609 67.83105469 C-319.73293457 66.95610352 -320.10112305 66.08115234 -320.48046875 65.1796875 C-320.78235107 64.47312012 -321.0842334 63.76655273 -321.39526367 63.03857422 C-322.12721921 60.57114234 -322.21283111 58.56153721 -322 56 C-302.81667059 26.75328467 -248.12241318 18.19961342 -217.2890625 11.66015625 C-189.14942523 5.81549191 -160.61534528 2.42810008 -132 0 C-131.30716919 -0.06058594 -130.61433838 -0.12117187 -129.9005127 -0.18359375 C-87.09580332 -3.91452901 -42.79566367 -3.74235003 0 0 Z " fill="#FFC800" transform="translate(322,248)"/>
<path d="M0 0 C5.03119291 4.11469477 8.39407166 8.84763597 11.74609375 14.37109375 C12.30296875 15.15484375 12.85984375 15.93859375 13.43359375 16.74609375 C19.25054017 28.37998659 19.57269747 42.35877838 15.87109375 54.68359375 C14.70516565 58.05614872 13.36097336 61.19499484 11.74609375 64.37109375 C12.40915527 64.52143066 13.0722168 64.67176758 13.75537109 64.82666016 C40.08367089 70.84364766 66.57413829 78.18204691 88.74609375 94.37109375 C89.78507812 95.1290625 90.8240625 95.88703125 91.89453125 96.66796875 C111.29016255 111.09247474 130.18438649 129.95829776 135.74609375 154.37109375 C129.55532084 153.36133361 123.37288231 152.3106683 117.19818115 151.20716858 C85.1862395 145.48826907 53.23969074 141.18506194 20.74609375 139.37109375 C20.01055267 139.32872589 19.2750116 139.28635803 18.5171814 139.2427063 C2.24043433 138.32675542 -14.01662282 138.16973372 -30.31640625 138.18359375 C-31.6353891 138.184198 -32.95437195 138.18480225 -34.31332397 138.1854248 C-55.68472649 138.20592805 -76.95227408 138.59265667 -98.25390625 140.37109375 C-99.39850311 140.46583984 -99.39850311 140.46583984 -100.56622314 140.5625 C-119.80398151 142.1757375 -138.9209827 144.45130726 -158.00390625 147.37109375 C-158.7898114 147.49061401 -159.57571655 147.61013428 -160.38543701 147.73327637 C-170.04941749 149.21753414 -179.61535484 150.9917891 -189.16351318 153.10131836 C-192.25231524 153.77819389 -195.08102984 154.37109375 -198.25390625 154.37109375 C-195.4251985 140.84531878 -187.248448 128.6080722 -178.25390625 118.37109375 C-177.59132813 117.56542969 -176.92875 116.75976562 -176.24609375 115.9296875 C-170.08203772 108.66247015 -162.91353903 102.96597263 -155.25390625 97.37109375 C-154.50020752 96.81728027 -153.74650879 96.2634668 -152.9699707 95.69287109 C-129.48702599 78.80776943 -102.38138159 69.87579984 -74.25390625 64.37109375 C-74.60324219 63.4790625 -74.95257813 62.58703125 -75.3125 61.66796875 C-75.76753906 60.4975 -76.22257812 59.32703125 -76.69140625 58.12109375 C-77.14386719 56.9609375 -77.59632813 55.80078125 -78.0625 54.60546875 C-82.43665301 42.73071894 -81.33327926 28.85829118 -76.25390625 17.37109375 C-74.48560052 14.15907541 -72.50409794 11.26167942 -70.25390625 8.37109375 C-69.07828125 6.79328125 -69.07828125 6.79328125 -67.87890625 5.18359375 C-49.56258263 -14.4410387 -21.25040234 -15.35774311 0 0 Z " fill="#FFC800" transform="translate(287.25390625,81.62890625)"/>
</svg>
